<svg width="22" height="17" fill="none" xmlns="http://www.w3.org/2000/svg"><path d="M19.81 14.524V5.797c-.238.273-.5.523-.784.75-1.625 1.25-3.261 2.523-4.84 3.84-.853.716-1.91 1.592-3.091 1.592h-.023c-1.182 0-2.239-.875-3.091-1.592-1.58-1.318-3.216-2.59-4.84-3.84a6.118 6.118 0 01-.785-.75v8.727c0 .194.17.364.364.364h16.727c.194 0 .364-.17.364-.364zm0-11.943c0-.285.069-.784-.363-.784H2.718a.374.374 0 00-.363.363c0 1.296.648 2.42 1.67 3.228A712.907 712.907 0 018.583 8.99c.602.489 1.693 1.534 2.489 1.534h.023c.795 0 1.886-1.045 2.488-1.534a688.984 688.984 0 014.557-3.602c.74-.58 1.67-1.84 1.67-2.806V2.58zm1.455-.42v12.363c0 1-.819 1.818-1.819 1.818H2.72c-1 0-1.818-.818-1.818-1.818V2.16c0-1 .818-1.818 1.818-1.818h16.727c1 0 1.819.818 1.819 1.818z" fill="#3F4952"/></svg>