<svg width="17" height="17" fill="none" xmlns="http://www.w3.org/2000/svg"><path d="M16.263 12.783c0 .409-.182 1.204-.352 1.58-.238.557-.875.92-1.386 1.204-.67.364-1.352.58-2.114.58-1.056 0-2.011-.432-2.977-.784a10.638 10.638 0 01-1.989-.944c-1.931-1.193-4.261-3.523-5.454-5.454a10.638 10.638 0 01-.944-1.989C.695 6.01.263 5.056.263 4c0-.762.216-1.443.58-2.114C1.127 1.375 1.491.738 2.047.5c.376-.17 1.17-.352 1.58-.352.08 0 .16 0 .239.034.238.08.488.636.602.864.363.648.715 1.307 1.09 1.943.183.296.524.66.524 1.012 0 .693-2.057 1.705-2.057 2.318 0 .307.284.705.443.977 1.147 2.069 2.58 3.5 4.648 4.649.273.159.67.443.977.443.614 0 1.625-2.057 2.318-2.057.352 0 .716.34 1.012.523.636.375 1.295.727 1.943 1.09.228.114.785.364.864.603a.58.58 0 01.035.238l-.002-.001z" fill="#3F4952"/></svg>