<svg width="211" height="379" fill="none" xmlns="http://www.w3.org/2000/svg"><circle cx="98.574" cy="179.025" r="98.403" fill="#E7C39C"/><path d="M90.286 42.007l-.083-.002c-3.733-.224-7.332-2.514-10.133-6.453-2.834-3.981-4.402-9-3.649-11.672.804-2.85 2.614-3.785 4.043-3.99.889-5.547 4.626-11.275 9.798-14.886 5.26-3.67 11.334-4.804 17.105-3.19 11.91 3.327 13.751 14.054 14.028 16.81 1.923 1.771 4.468 5.784 2.784 10.807-2.159 6.444-7.978 9.44-8.225 9.566a1.376 1.376 0 01-1.836-1.878c1.888-3.551 1.492-6.66.827-8.641-.909-2.713-2.756-4.614-4.088-5.232-3.891-1.806-4.834-4.049-5.926-6.643-.635-1.51-1.514-1.917-1.786-2.01-.369.045-2.176.463-4.183 4.271-1.724 3.264-3.775 3.782-5.76 4.281-1.685.426-3.427.863-5.578 3.253-4.063 4.518 2.873 11.88 2.943 11.955.283.297.409.685.377 1.064.453.25.748.743.716 1.293a1.378 1.378 0 01-1.374 1.297zm-9.255-19.423c-.528 0-1.459.276-1.957 2.044-.394 1.395.534 5.523 3.241 9.328.901 1.266 2.477 3.128 4.6 4.276-2.248-3.076-5.507-9.039-1.339-13.673 2.712-3.014 5.064-3.607 6.955-4.083 1.773-.445 2.844-.716 3.995-2.895 3.168-6.005 6.573-5.78 6.951-5.73.303.044 2.647.483 3.984 3.66 1.056 2.51 1.633 3.88 4.558 5.24 2.332 1.082 4.506 3.773 5.54 6.853a13.22 13.22 0 01.521 6.383c1.324-1.302 2.71-3.107 3.488-5.429 1.675-4.994-2.302-8.136-2.342-8.167a1.377 1.377 0 01-.535-1.06c-.012-.471-.43-11.613-12.063-14.863-4.963-1.384-10.215-.393-14.787 2.799-4.925 3.437-8.373 8.983-8.784 14.128a1.379 1.379 0 01-1.727 1.223 1.186 1.186 0 00-.3-.034z" fill="#3F4952"/><path d="M101.648 54.548c-.145 0-.289-.004-.435-.012-10.32-.51-13.976-13.31-14.128-13.856a1.375 1.375 0 01.96-1.693 1.38 1.38 0 011.696.956c.031.115 3.282 11.43 11.608 11.842 6.838.32 12.092-11.721 13.529-16.396a1.376 1.376 0 112.633.809c-.232.759-5.743 18.35-15.863 18.35zM84.942 29.42a1.377 1.377 0 01-.005-2.756l30.652-.113h.005a1.378 1.378 0 01.006 2.756l-30.652.113h-.006z" fill="#3F4952"/><path d="M86.237 35.862a1.378 1.378 0 01-.005-2.756l29.953-.108h.005a1.377 1.377 0 01.005 2.754l-29.953.11h-.005zm-5.994 32.68a1.379 1.379 0 01-.219-2.738c4.787-.777 10.512-2.458 11.418-3.818 1.053-1.578.864-8.428.395-12.788a1.377 1.377 0 112.738-.295c.207 1.92 1.138 11.643-.84 14.611-2.032 3.048-11.41 4.708-13.27 5.01-.075.012-.15.018-.222.018z" fill="#3F4952"/><path d="M72.404 130.6c-.335 0-.659-.028-.968-.091-1.428-.286-2.575-1.154-3.317-2.512-1.394-2.551-1.138-6.508-.187-8.934 1.285-3.286 3.072-10.634 2.138-12.785-1.592-3.659-1.287-9.3.933-17.243 2.122-7.592-.285-16.06-2.043-19.865-.586-1.27-.553-2.557.099-3.717 1.377-2.452 5.24-3.719 8.395-4.086 3.267-.379 11.82-5.295 14.84-7.156a1.377 1.377 0 111.446 2.345c-1.164.717-11.507 7.03-15.968 7.549-2.973.344-5.627 1.48-6.31 2.697-.152.272-.271.628 0 1.215 1.915 4.147 4.531 13.396 2.195 21.76-2.509 8.978-1.962 13.333-1.06 15.404 1.612 3.708-1.293 12.827-2.1 14.885-.72 1.84-.875 4.935.04 6.611.354.646.812 1.008 1.441 1.133 2.268.448 7.165-2.575 9.718-4.592a1.377 1.377 0 111.707 2.163c-.723.567-6.747 5.219-11 5.219z" fill="#3F4952"/><path d="M81.008 133.83a9.91 9.91 0 01-.423-.01c-2.837-.138-5.165-1.679-6.735-4.454a1.377 1.377 0 01.521-1.877 1.376 1.376 0 011.877.52c1.112 1.967 2.574 2.965 4.471 3.058 4.973.216 11.894-5.707 15.906-11.423 5.954-8.49 12.764-12.675 13.052-12.85a1.378 1.378 0 011.43 2.355c-.065.041-6.622 4.086-12.226 12.077-4.309 6.139-11.673 12.604-17.873 12.604z" fill="#3F4952"/><path d="M94.913 133.785c-4.52 0-7.673-2.559-7.844-2.699a1.377 1.377 0 011.757-2.122c.169.138 4.305 3.435 9.549 1.403 4.344-1.685 9.243-8.647 11.335-11.619 1.228-1.745 1.45-2.059 2.248-2.059a1.379 1.379 0 01.861 2.452c-.159.202-.513.704-.856 1.193-2.426 3.446-7.471 10.616-12.594 12.602-1.58.612-3.082.849-4.456.849z" fill="#3F4952"/><path d="M103.934 134.126c-1.72 0-3.353-.645-4.87-1.928a1.378 1.378 0 011.776-2.104c1.282 1.082 2.59 1.469 3.997 1.183 4.253-.867 8.483-7.578 9.754-10.094a1.378 1.378 0 012.459 1.244c-.211.418-5.246 10.242-11.664 11.548-.49.1-.974.151-1.452.151z" fill="#3F4952"/><path d="M113.395 134.23c-3.565 0-5.673-2.269-5.782-2.388a1.377 1.377 0 012.041-1.851c.08.085 2.205 2.287 5.747 1.152 2.774-.892 5.819-7.437 7.087-11.354a1.376 1.376 0 112.621.847c-.379 1.176-3.851 11.517-8.865 13.127a9.205 9.205 0 01-2.849.467z" fill="#3F4952"/><path d="M122.465 133.09c-2.689 0-4.703-1.178-4.828-1.254a1.376 1.376 0 111.413-2.362c.129.073 3.331 1.9 6.536-.004 2.647-1.572 2.665-7.109 2.449-9.108a1.379 1.379 0 012.739-.296c.1.917.834 9.034-3.781 11.775a8.769 8.769 0 01-4.528 1.249zm-6.873-66.234c-.258 0-.518-.072-.751-.224-.151-.1-3.735-2.438-5.358-3.855-1.827-1.599-1.498-8.134-1.14-11.886a1.376 1.376 0 011.503-1.242 1.38 1.38 0 011.24 1.503c-.415 4.346-.293 8.831.259 9.598 1.428 1.242 4.965 3.55 5 3.574a1.376 1.376 0 01-.753 2.532z" fill="#3F4952"/><path d="M116.189 99.755a1.376 1.376 0 01-1.272-1.906c.069-.165 6.938-16.773 8.267-25.354 1.207-7.788-1.91-12.69-5.318-13.95-3.754-1.388-8.745-4.047-8.955-4.16a1.376 1.376 0 111.298-2.428c.05.024 5.038 2.68 8.613 4.004 4.424 1.635 8.529 7.639 7.086 16.956-1.38 8.91-8.157 25.296-8.445 25.99a1.38 1.38 0 01-1.274.848z" fill="#3F4952"/><path d="M105.62 78.585c-3.188 0-7.482-.406-12.64-1.861-11.608-3.276-16.827-12.471-17.043-12.862a1.378 1.378 0 012.407-1.34c.06.105 4.927 8.597 15.384 11.548 10.626 2.999 17.379 1.23 17.445 1.211.732-.2 1.49.23 1.692.964a1.375 1.375 0 01-.957 1.69c-.165.047-2.409.65-6.288.65z" fill="#3F4952"/><path d="M72.702 124.929a1.378 1.378 0 01-1.083-2.229c.289-.365 7.227-9.057 22.783-16.709 14.242-7.007 21.469-40.105 20.531-43.334-.8-1.59-4.056-3.468-5.914-4.261a1.379 1.379 0 011.082-2.535c.586.25 5.775 2.532 7.328 5.637 1.106 2.213-1.076 12.521-3.728 20.389-2.665 7.914-8.56 21.891-18.082 26.574-14.946 7.354-21.766 15.858-21.834 15.943a1.38 1.38 0 01-1.083.525z" fill="#3F4952"/><path d="M99.955 89.537a1.4 1.4 0 01-.203-.016c-19.685-2.907-27.987-23.537-28.331-24.412a1.378 1.378 0 012.563-1.009c.08.2 8.084 20.025 26.17 22.695a1.379 1.379 0 01-.2 2.742zm-3.697 8.348c-.042 0-.082-.001-.124-.005-14.438-1.29-23.68-14.537-24.067-15.1a1.378 1.378 0 012.272-1.56c.087.127 8.913 12.744 22.04 13.915a1.377 1.377 0 01-.12 2.75zm32.649 19.815a1.38 1.38 0 01-1.278-1.894c.024-.06 2.538-6.532 3.141-21.844.562-14.263-.83-28.489-1.077-30.858-1.495-1.867-6.257-2.075-7.869-2.002-.753.018-1.406-.548-1.444-1.307a1.379 1.379 0 011.309-1.443c.826-.041 8.155-.288 10.509 3.537.106.173.173.365.196.566.018.158 1.749 15.864 1.129 31.613-.625 15.884-3.229 22.496-3.339 22.77a1.375 1.375 0 01-1.277.862zm-91.93 80.879a1.367 1.367 0 01-1.153-.624c-.556-.85-5.453-8.395-6.317-11.33-1.073-3.65 3.92-18.245 7.425-24.647 3.574-6.527 12.694-34.605 13.47-37.005.165-2.454 1.847-26.199 6.021-40.808 4.464-15.627 11.354-18.2 11.644-18.301a1.377 1.377 0 01.928 2.593c-.123.05-5.934 2.5-9.924 16.466-4.229 14.803-5.915 40.148-5.931 40.402a1.354 1.354 0 01-.064.332c-.402 1.247-9.887 30.632-13.727 37.644-4.05 7.394-7.793 20.524-7.198 22.545.541 1.844 3.461 6.651 5.205 9.398l3.22-2.285c-1.012-4.581-.29-5.53-.042-5.857.217-.283.63-.637 1.362-.701 2.108-.194 7.11 2.548 8.66 3.971l.653.608c.32.3.683.64.99.9-.049-1.514-.768-4.545-2.194-5.495-2.587-1.725-7.337-6.628-7.538-6.836a1.376 1.376 0 01-.384-.863c-.255-3.7-.702-9.822-.815-10.503a1.378 1.378 0 011.131-1.585 1.385 1.385 0 011.586 1.133c.155.931.663 8.122.81 10.26 1.137 1.154 4.77 4.789 6.737 6.102 2.116 1.412 3.137 4.628 3.368 6.958.238 2.4-.442 3.08-.666 3.303-1.671 1.669-3.467-.012-4.91-1.362l-.633-.589c-1.299-1.193-4.396-2.699-5.887-3.136.048.921.303 2.495.66 3.951a1.377 1.377 0 01-.54 1.453l-5.151 3.656a1.378 1.378 0 01-.796.252z" fill="#3F4952"/><path d="M43.017 173.866a1.378 1.378 0 01-1.171-2.1c3.144-5.091 18.63-37.985 19.727-41.898 1.145-4.092 7.491-28.964 7.555-29.215a1.379 1.379 0 012.67.681c-.261 1.026-6.419 25.156-7.573 29.278-1.301 4.648-17.114 37.873-20.034 42.603a1.38 1.38 0 01-1.174.651zm30.185 62.101c-.423 0-.841-.194-1.11-.561-8.683-11.793-12.854-27.339-10.889-40.567 1.74-11.698 3.648-37.349 3.145-46.578-.513-9.415 4.678-19.266 4.899-19.68a1.373 1.373 0 011.863-.567c.67.357.926 1.191.568 1.861-.05.096-5.05 9.601-4.579 18.234.52 9.551-1.375 35.064-3.17 47.137-1.863 12.536 2.114 27.299 10.382 38.529a1.378 1.378 0 01-1.11 2.192z" fill="#3F4952"/><path d="M56.586 375.543c-.037 0-.074-.002-.11-.004-.458-.035-11.298-1.047-18.715-14.672-7.02-12.893 6.563-28.063 15.55-38.102.788-.88 1.54-1.72 2.238-2.514 8.449-9.608 20.998-33.914 22.828-39.249 1.45-4.227-1.018-17.384-3.404-30.108a825.912 825.912 0 01-1.967-10.751c-2.95-17.007 6.862-41.885 13.185-51.035 5.105-7.39 13.505-25.661 16.668-32.54 1.107-2.408 1.156-2.505 1.264-2.668a1.379 1.379 0 012.335 1.461c-.104.2-.564 1.201-1.096 2.357-3.19 6.939-11.663 25.37-16.905 32.956-5.923 8.575-15.519 32.957-12.736 48.996a834.438 834.438 0 001.96 10.715c2.565 13.678 4.987 26.595 3.303 31.508-2.095 6.11-14.785 30.418-23.365 40.177a412.82 412.82 0 01-2.256 2.534c-8.471 9.461-21.273 23.761-15.183 34.947 6.667 12.248 16.12 13.207 16.518 13.243.757.066 1.32.73 1.256 1.487a1.374 1.374 0 01-1.368 1.262z" fill="#3F4952"/><path d="M93.308 378.701a1.38 1.38 0 01-1.096-.54c-.349-.457-.687-.914-1.024-1.366-3.765-5.062-7.015-9.434-21.172-9.725-16.544-.341-21.901-6.372-22.12-6.628a1.378 1.378 0 012.082-1.801c.092.099 5.018 5.365 20.094 5.676 15.505.318 19.482 5.666 23.326 10.835.33.443.662.891 1.002 1.335a1.377 1.377 0 01-1.092 2.214zm48.741-73.442a1.38 1.38 0 01-1.18-.665c-5.161-8.522-8.641-56.281-3.638-68.29 4.749-11.397 4.878-33.59-1.496-40.672-6.076-6.749-5.683-25.009-5.423-37.091.043-2.061.083-3.916.083-5.454 0-9.797-5.308-21.747-5.362-21.867a1.378 1.378 0 012.513-1.128c.229.51 5.604 12.6 5.604 22.995 0 1.556-.04 3.43-.084 5.513-.236 10.94-.629 29.25 4.715 35.19 7.095 7.882 7.137 31.229 1.992 43.573-5.026 12.063-.867 58.674 3.452 65.803a1.379 1.379 0 01-1.176 2.093z" fill="#3F4952"/><path d="M178.88 378.701a1.378 1.378 0 01-.33-2.715c4.737-1.174 7.912-3.792 9.439-7.776 3.142-8.212-.784-21.963-10.247-35.89-8.065-11.871-21.08-23.492-33.665-34.729-7.774-6.944-15.119-13.501-20.795-19.698-14.88-16.245-19.206-70.076-19.383-72.358a1.376 1.376 0 011.267-1.479c.751-.077 1.421.51 1.479 1.267.042.55 4.429 55.161 18.669 70.709 5.584 6.095 12.877 12.607 20.6 19.503 12.709 11.35 25.853 23.087 34.108 35.237 9.962 14.661 14.002 29.384 10.541 38.422-1.867 4.879-5.685 8.063-11.349 9.467-.113.026-.224.04-.334.04z" fill="#3F4952"/><path d="M145.087 377.015c-14.987 0-31.545-3.876-42.322-12.229-18.33-14.202-32.207-17.084-49.498-10.275a1.376 1.376 0 01-1.786-.775 1.38 1.38 0 01.777-1.788c18.101-7.131 33.223-4.04 52.195 10.663 20.159 15.622 57.003 14.012 68.583 4.748 2.132-1.706 3.08-4.617 2.818-8.654-.97-14.957-18.635-41.064-30.338-48.163-15.347-9.309-20.236-18.141-20.437-18.512a1.377 1.377 0 012.424-1.309c.08.144 4.858 8.62 19.443 17.467 12.36 7.497 30.616 34.262 31.659 50.342.323 4.986-.971 8.682-3.847 10.982-6.116 4.889-17.365 7.503-29.671 7.503z" fill="#3F4952"/><path d="M142.05 340.65a1.38 1.38 0 01-1.262-.821c-5.877-13.348-37.089-34.677-50.418-43.785-15.553-10.628-12.135-26.21-12.098-26.365a1.378 1.378 0 012.684.622c-.128.563-2.986 13.932 10.969 23.469 22.346 15.27 45.927 32.552 51.385 44.947a1.38 1.38 0 01-1.26 1.933z" fill="#3F4952"/><path d="M155.701 368.317a1.378 1.378 0 01-.474-2.672c1.079-.694 8.91-7.478 10.498-16.043.867-4.675-.346-9.027-3.604-12.937-4.398-5.28-15.889-14.03-29.194-24.161-24.699-18.807-52.693-40.124-56.611-54.409a1.378 1.378 0 012.657-.728c3.671 13.384 32.477 35.321 55.623 52.945 13.438 10.235 25.044 19.072 29.642 24.591 5.068 6.08 5.882 13.278 2.353 20.811-3.05 6.509-9.332 12.603-10.89 12.603z" fill="#3F4952"/><path d="M122.509 297.781c-.406 0-.809-.181-1.081-.524-2.642-3.346-7-8.265-12.046-13.958-10.592-11.952-23.772-26.827-28.91-36.076-7.985-14.371-1.483-43.761-1.388-44.006a1.379 1.379 0 012.587.946c-.763 2.577-5.633 29.408 1.208 41.724 4.992 8.985 18.063 23.735 28.565 35.587 5.073 5.724 9.455 10.67 12.146 14.076a1.377 1.377 0 01-1.081 2.231z" fill="#3F4952"/><path d="M115.019 278.089a1.379 1.379 0 01-1.241-.777c-1.952-4.032-5.368-9.735-8.984-15.774-7.359-12.283-15.7-26.205-18.182-36.083-3.25-12.921 12.22-37.899 17.303-46.105.626-1.011 1.219-1.967 1.375-2.265a1.378 1.378 0 012.687.43c0 .511-.064.615-1.72 3.286-13.231 21.361-18.942 36.16-16.975 43.983 2.385 9.482 10.973 23.818 17.874 35.339 3.808 6.357 7.096 11.845 9.101 15.99a1.38 1.38 0 01-.64 1.841 1.383 1.383 0 01-.598.135zm-9.749-106.925a1.378 1.378 0 01-.946-2.378c12.915-12.198 14.778-35.973 14.845-37.161a1.377 1.377 0 011.678-1.491c.496.115.891.498 1.025.987.277 1.02-1.945 26.717-15.657 39.667a1.367 1.367 0 01-.945.376zm3.362-21.186a1.377 1.377 0 01-1.204-2.044c3.187-5.748 4.102-15.122 4.11-15.215a1.38 1.38 0 011.501-1.242c.758.07 1.313.742 1.242 1.501-.039.405-.981 10.046-4.443 16.291a1.375 1.375 0 01-1.206.709zm19.403 112.16a1.376 1.376 0 01-1.296-1.843c.099-.277 9.854-27.985-.877-44.649-11.784-18.302-6.723-51.367-6.652-51.669a1.378 1.378 0 012.681.635c-.084.443-4.748 32.404 6.286 49.54 11.471 17.815 1.579 45.888 1.154 47.073a1.378 1.378 0 01-1.296.913zM87.326 191.27a1.38 1.38 0 01-1.16-.632c-15.485-24.069-2.775-58.209-2.227-59.65a1.373 1.373 0 011.777-.797c.71.27 1.068 1.064.797 1.776-.128.34-12.756 34.291 1.97 57.181a1.377 1.377 0 01-1.157 2.122z" fill="#3F4952"/><path d="M77.89 212.071a1.377 1.377 0 01-1.334-1.725c2.09-8.012.346-22.799-5.187-43.948-4.32-16.52 4.9-34.78 5.295-35.547a1.377 1.377 0 112.451 1.256c-.091.179-9.132 18.104-5.08 33.594 5.732 21.916 7.43 36.749 5.187 45.341a1.376 1.376 0 01-1.331 1.029zM48.94 348.628a1.38 1.38 0 01-1.32-.991c-1.609-5.482 5.546-13.835 15.447-25.397 2.934-3.425 5.967-6.968 9.066-10.772 12.99-15.949 8.443-26.334 8.393-26.434a1.385 1.385 0 01.609-1.848 1.37 1.37 0 011.84.585c.06.114 5.537 11.951-8.705 29.437-3.12 3.832-6.165 7.388-9.109 10.825-8.63 10.079-16.084 18.783-14.898 22.83a1.378 1.378 0 01-1.323 1.765zm30.999-24.926a1.378 1.378 0 01-1.19-2.068c7.233-12.524 8.464-28.591 8.476-28.752a1.378 1.378 0 012.748.198c-.049.682-1.281 16.847-8.84 29.932-.255.444-.719.69-1.194.69z" fill="#3F4952"/><path d="M68.523 347.629c-.368 0-.735-.146-1.007-.436-.617-.661-.919-1.464-.874-2.324.13-2.52 3.181-5.173 8.237-9.566 4.121-3.582 9.249-8.037 14.494-13.898 11.853-13.246 6.167-21.875 6.109-21.961a1.379 1.379 0 012.27-1.561c.29.424 6.953 10.516-6.326 25.358-5.36 5.99-10.56 10.51-14.739 14.142-3.715 3.228-7.224 6.277-7.293 7.629-.003.064-.007.144.136.298a1.378 1.378 0 01-1.007 2.319zm96.266-293.806c-.758 0-1.373-.61-1.377-1.368-.187-32.69-.128-33.057-.102-33.214a1.38 1.38 0 011.585-1.131 1.375 1.375 0 011.146 1.474c-.041 1.088.052 20.2.124 32.852a1.376 1.376 0 01-1.369 1.386l-.007.001z" fill="#3F4952"/><path d="M132.172 59.295s4.164-2.573 2.27-5.122c-1.894-2.55-7.524 2.343-5.492 7.289 2.031 4.943 3.38 4.16 10.37 1.576 6.99-2.581 17.084-3.426 20.454-1.82 3.371 1.6 6.501.395 9.236-1.039 2.735-1.43 5.297-.501 12.574 2.303 7.28 2.8 16.704 3.184 16.548-2.41-.156-5.592-5.947-6.766-7.151-4.55-1.205 2.217-.254 3.796 1.899 3.538 2.15-.265 1.623 2.565-1.068 2.845-2.691.28-11.935-3.708-16.954-6.325-5.02-2.613-10.103-4.21-10.103-4.21s-7.027 3.005-11.868 4.292c-4.84 1.288-13.978 5.9-17.343 5.91-3.363.012-3.372-2.277-3.372-2.277z" fill="#3F4952"/><path d="M174.49 111.535a1.375 1.375 0 01-1.328-1.745l13.285-47.836a1.37 1.37 0 01.693-.853 1.387 1.387 0 011.099-.074l3.909 1.397c.411.145.728.48.854.898l14.033 46.325a1.376 1.376 0 11-2.636.796l-13.832-45.66-1.862-.665-12.888 46.408a1.378 1.378 0 01-1.327 1.009z" fill="#3F4952"/><path d="M191.736 116.451c-.73 0-1.338-.573-1.374-1.31l-2.598-52.262a1.376 1.376 0 011.307-1.444c.747-.025 1.407.547 1.444 1.308l2.598 52.262a1.379 1.379 0 01-1.308 1.444l-.069.002z" fill="#3F4952"/><path d="M191.114 122.939c-13.225 0-19.891-4.73-21.006-7.867-1.057-2.975 1.786-5.688 3.055-6.716a1.377 1.377 0 012.618-.855c.061.146 2.175 4.916 14.757 4.991.091.002.184.002.273.002 12.131 0 12.865-4.726 12.871-4.775a1.42 1.42 0 01.747-1.08 1.387 1.387 0 011.298.006c3.421 1.918 4.982 4.673 4.279 7.557-1.177 4.834-8.163 8.416-16.989 8.707-.648.02-1.284.03-1.903.03zm-16.411-12.279c-1.05.9-2.378 2.424-1.999 3.49.626 1.761 6.57 6.451 20.224 6.004 8.376-.277 13.672-3.61 14.402-6.605.366-1.502-.496-2.715-1.616-3.614-1.287 2.167-4.884 5.311-14.911 5.311h-.28c-9.471-.056-13.846-2.6-15.82-4.586zm-56.068 2.489a1.377 1.377 0 01-1.329-1.745l13.286-47.836a1.376 1.376 0 011.791-.928l3.91 1.397c.411.147.728.48.854.897l14.032 46.325a1.378 1.378 0 11-2.636.799l-13.831-45.66-1.862-.665-12.889 46.408a1.376 1.376 0 01-1.326 1.008z" fill="#3F4952"/><path d="M135.88 118.067c-.73 0-1.338-.571-1.374-1.309l-2.598-52.265a1.377 1.377 0 011.307-1.443c.738-.02 1.407.548 1.444 1.307l2.598 52.265a1.377 1.377 0 01-1.308 1.443c-.023.002-.045.002-.069.002z" fill="#3F4952"/><path d="M135.259 124.556c-13.227 0-19.891-4.734-21.006-7.87-1.057-2.972 1.784-5.685 3.054-6.713a1.378 1.378 0 012.617-.859c.062.149 2.178 4.916 14.758 4.993 12.254.091 13.137-4.687 13.14-4.736.031-.471.301-.894.717-1.119a1.373 1.373 0 011.33.008c3.423 1.918 4.984 4.673 4.281 7.557-1.177 4.834-8.163 8.416-16.988 8.707-.648.02-1.284.032-1.903.032zm-16.411-12.283c-1.051.901-2.378 2.426-1.999 3.49.626 1.762 6.573 6.461 20.222 6.006 8.378-.277 13.674-3.61 14.403-6.605.366-1.502-.496-2.715-1.617-3.614-1.298 2.187-4.938 5.39-15.191 5.31-9.468-.057-13.842-2.599-15.818-4.587zm16.786-26.12a33.59 33.59 0 01-4.086-.226 1.378 1.378 0 01.337-2.734c14.573 1.802 43.311-7.46 47.406-9.187.347-3.53-.348-22.768-.902-32.073-.437-7.38-2.646-20.642-3.006-22.774-4.705-6.944-10.041-14.434-11.705-16.222-1.474.93-5.253 4.637-8.388 8.035-.167 1.928-.428 5.845-.219 7.705l.097-.043c.839-.371 2.585-1.14 3.868.301.114.129.204.276.264.437.05.14.437 1.197.667 2.006.217.049.534.085.793.087.261 0 .52.076.74.218.724.463 1.627.9 2.053 1.001.464-.375 1.477-1.572 2.31-2.744a1.377 1.377 0 012.499.725c.217 4.04 3.867 8.63 3.904 8.677.334.416.398.99.161 1.471-.031.064-3.127 6.438-3.744 14.78a17753.51 17753.51 0 01-1.848 24.555 1.378 1.378 0 01-1.708 1.233c-13.567-3.405-33.829-5.385-34.033-5.404a1.378 1.378 0 01.264-2.742c.197.02 19.157 1.873 32.852 5.089.322-4.252 1.203-15.892 1.725-22.936.538-7.25 2.777-12.986 3.664-15.012-.841-1.167-2.484-3.662-3.38-6.457-.771.833-1.422 1.323-1.944 1.467-1.12.304-2.7-.426-3.933-1.178-1.01-.06-2.637-.38-2.951-1.796-.074-.332-.283-.974-.472-1.517-.199.068-.457.183-.635.26-.76.337-1.705.755-2.661.265-.601-.305-.994-.874-1.168-1.686-.516-2.402.069-8.762.137-9.478.029-.298.153-.577.355-.799 9.27-10.135 10.728-9.626 11.505-9.348.447.157 1.804.637 13.382 17.756.11.163.184.346.217.538.106.618 2.608 15.215 3.091 23.368.239 4.02.607 12.164.821 19.342.41 13.796.033 14.214-.444 14.744-1.397 1.552-29.608 10.296-45.885 10.296z" fill="#3F4952"/><path d="M157.112 20.846a1.376 1.376 0 01-1.357-1.622l1.333-7.37a1.39 1.39 0 01.293-.633l3.157-3.82a1.372 1.372 0 011.939-.186c.586.484.669 1.352.185 1.937l-2.927 3.545-1.268 7.017a1.382 1.382 0 01-1.355 1.132z" fill="#3F4952"/><path d="M159.94 22.929a1.38 1.38 0 01-1.349-1.668l1.662-7.68c.04-.181.114-.352.221-.503l2.658-3.768a1.378 1.378 0 012.252 1.588l-2.498 3.54-1.601 7.405a1.379 1.379 0 01-1.345 1.086z" fill="#3F4952"/><path d="M162.969 25.321a1.378 1.378 0 01-1.348-1.667l1.291-6.03c.045-.208.136-.402.27-.57l1.661-2.087a1.378 1.378 0 112.155 1.717l-1.459 1.833-1.224 5.713a1.38 1.38 0 01-1.346 1.091zM23.684 212.071a1.38 1.38 0 01-1.336-1.039l-4.652-18.374a1.376 1.376 0 011.336-1.715h14.909a1.377 1.377 0 110 2.755H20.8l3.826 15.109 20.457-8.569c.168-.07.35-.107.533-.107h14.956a1.378 1.378 0 010 2.756H45.895l-21.677 9.081a1.487 1.487 0 01-.534.103zm29.08-22.754a1.378 1.378 0 01-.649-2.594l11.322-6.03a1.378 1.378 0 011.295 2.431l-11.322 6.032a1.394 1.394 0 01-.646.161z" fill="#3F4952"/><path d="M67.654 305.258a1.37 1.37 0 01-1.027-.46l-13.063-14.622a1.374 1.374 0 01-.334-.706c-5.07-32.401-12.922-81.326-14.045-85.034a1.378 1.378 0 01.639-1.995 1.414 1.414 0 011.217.067c.84.471 1.155.647 8.144 43.95 3.144 19.484 6.23 39.151 6.705 42.186l12.792 14.319a1.376 1.376 0 01-1.028 2.295zm3.952-5.899c-.75 0-1.364-.601-1.377-1.354l-.367-21.115-18.437-75.055a1.376 1.376 0 112.675-.657l18.474 75.206c.025.101.039.202.04.305l.37 21.27a1.378 1.378 0 01-1.354 1.401l-.024-.001z" fill="#3F4952"/><path d="M70.462 301.428a1.38 1.38 0 01-1.335-1.042c-.062-.244-6.22-24.68-12.21-48.916-12.276-49.681-12.003-50.032-11.402-50.803a1.411 1.411 0 011.1-.539 1.378 1.378 0 011.357 1.611c.435 4.273 14.417 60.66 23.825 97.974a1.378 1.378 0 01-1.335 1.715zM36.47 167.413c-.624 0-1.19-.425-1.339-1.06l-3.15-13.365a1.38 1.38 0 011.057-1.664l9.696-2.04a1.372 1.372 0 011.632 1.062 1.38 1.38 0 01-1.065 1.633l-8.315 1.751 2.826 11.991a1.379 1.379 0 01-1.024 1.658 1.49 1.49 0 01-.318.034zm14.298 19.205a1.38 1.38 0 01-1.346-1.089l-4.183-19.52a1.377 1.377 0 112.693-.578l4.183 19.518a1.379 1.379 0 01-1.347 1.669z" fill="#3F4952"/></svg>