<svg width="105" height="116" fill="none" xmlns="http://www.w3.org/2000/svg"><path fill-rule="evenodd" clip-rule="evenodd" d="M48.308.161c-3.224.292-6.856.99-9.541 1.836-1.056.332-2.877.957-3.385 1.16a56.327 56.327 0 00-4.199 1.875c-1.812.902-2.481 1.286-4.45 2.552-1.12.72-1.166.752-1.772 1.192-.284.206-.624.447-.755.535-.131.089-.293.21-.36.27-.066.06-.338.275-.604.479a9.675 9.675 0 00-.538.43c-.03.033-.194.167-.366.299-1.135.869-4.647 4.269-5.723 5.54-.246.291-.536.631-.644.756-.108.125-.317.384-.465.576a19.153 19.153 0 01-.779.956c-.103.123-.188.268-.188.321 0 .054-.04.113-.088.133-.048.02-.3.349-.559.731-.259.383-.557.79-.664.904-.106.114-.193.248-.193.299 0 .05-.097.195-.215.32-.118.127-.215.294-.215.371 0 .077-.048.14-.107.14-.06 0-.108.052-.108.115s-.145.325-.322.581c-.177.257-.322.519-.322.582 0 .063-.037.115-.08.115-.045 0-.135.109-.2.24-.233.475-.635 1.205-.69 1.258-.117.11-1.395 2.735-1.395 2.863 0 .074-.047.134-.106.134-.06 0-.108.068-.108.15 0 .084-.103.36-.23.616a9.357 9.357 0 00-.308.68c-.113.31-.332.827-.441 1.042a.933.933 0 00-.095.35c0 .09-.049.258-.108.375l-.215.426a1.12 1.12 0 00-.107.422c0 .115-.048.239-.107.275-.06.036-.108.18-.108.321 0 .14-.048.285-.107.321-.06.037-.108.181-.108.322 0 .14-.048.284-.107.32-.06.037-.108.206-.108.375 0 .17-.048.339-.107.375-.06.036-.108.205-.108.375s-.043.335-.095.367c-.053.032-.122.216-.153.408-.032.192-.113.566-.18.83-.45 1.792-.842 4.032-1.097 6.263-.165 1.444-.163 8.783.002 10.17.258 2.162.59 4.159.88 5.3.068.264.15.662.18.883.031.221.1.429.153.461.052.033.096.222.096.421 0 .2.048.392.107.429.06.036.107.205.107.374 0 .17.049.339.108.375.059.036.107.181.107.321s.049.285.108.321c.059.037.107.205.107.375s.049.338.108.375c.059.036.107.16.107.275 0 .115.048.305.108.422l.214.425c.06.117.108.286.108.377 0 .09.043.247.095.349.052.102.142.306.2.453.058.148.16.4.228.562.14.342.297.728.43 1.07.09.23.522 1.169 1.02 2.222.127.265.266.498.31.518.044.02.08.118.08.22 0 .1.046.229.1.285.056.056.24.366.412.69.41.778.603 1.113.679 1.178.034.03.13.21.214.401.084.192.189.348.233.348.045 0 .082.072.082.16 0 .089.048.161.107.161.06 0 .107.05.107.112s.242.469.538.905c.295.436.537.84.537.896 0 .057.039.12.087.14.047.019.25.276.45.57.199.294.391.56.428.589a4 4 0 01.326.428c.143.206.31.427.37.492.062.064.232.275.38.469.148.194.341.438.43.542.088.105.33.397.537.65.207.252.483.565.613.695l.237.237-.506.24c-.277.13-.868.405-1.31.609-2.067.95-3.46 1.667-4.997 2.57-.943.553-2.57 1.56-2.632 1.627-.03.033-.271.202-.537.377-1.666 1.096-2.705 2.006-2.973 2.605-.215.477-.253 2.95-.05 3.154.067.066.122.253.122.414 0 .162.048.324.107.36.06.036.108.18.108.321 0 .14.048.285.107.321.21.129.102.386-.349.84-.251.252-.577.62-.725.817a7.21 7.21 0 01-.382.474c-.212.219-1.015 1.443-1.015 1.548 0 .057-.037.12-.081.14-.045.019-.292.469-.549.998a95.17 95.17 0 01-.563 1.15 1.02 1.02 0 00-.096.395c0 .115-.048.239-.108.275-.059.037-.107.223-.107.413 0 .191-.043.393-.096.45-.053.055-.127.318-.164.583-.416 3.006-.416 3.417 0 6.423.037.265.11.527.164.583.053.056.096.234.096.395 0 .162.048.324.107.36.06.036.108.16.108.275 0 .115.042.293.094.396.398.788.55 1.135.55 1.257 0 .078.037.158.082.177.044.02.25.373.455.785.44.882.591 1.061.82.974.137-.053.155-.17.096-.626-.148-1.143-.18-3.976-.05-4.416.229-.776.682-1.778.961-2.128.416-.52 1.03-1.053 1.482-1.286.526-.271.512-.308.29.738a3.365 3.365 0 01-.163.535c-.334.763-.32 5.582.016 5.789.052.032.094.177.094.321 0 .145.049.359.108.476l.215.425c.059.117.107.285.107.374 0 .09.048.163.107.163.06 0 .108.072.108.16 0 .088.048.161.107.161.06 0 .108.072.108.16 0 .089.048.161.107.161a.11.11 0 01.108.114c0 .064.06.176.134.251.074.075.255.297.403.493.28.373.482.576 1.02 1.027.384.321 1.913 1.112 2.15 1.112.296 0 .3-.315.012-.749-.155-.233-.281-.469-.281-.524 0-.055-.037-.117-.08-.136-.118-.052-.565-.939-.565-1.118a.916.916 0 00-.094-.338c-.325-.641-.476-2.546-.237-2.997.054-.103.172-.356.262-.564a3.01 3.01 0 01.393-.643c1.394-1.611 2.69-2.402 5.263-3.21.798-.25 1.668-.567 1.934-.702.525-.269 1.504-1.127 1.504-1.318 0-.065.048-.119.107-.119.06 0 .108-.072.108-.16 0-.089.036-.161.081-.161.28 0 .53-2.05.273-2.239-.047-.034-.154-.195-.238-.357-.084-.162-.193-.294-.242-.294-.049 0-.09-.073-.09-.16 0-.09-.047-.162-.107-.162-.059 0-.107-.072-.107-.16 0-.088-.048-.16-.107-.16-.06 0-.108-.073-.108-.161 0-.089-.048-.16-.107-.16-.06 0-.108-.073-.108-.161 0-.089-.048-.161-.107-.161-.06 0-.108-.072-.108-.16 0-.089-.048-.161-.107-.161-.06 0-.108-.072-.108-.16 0-.089-.048-.161-.107-.161s-.107-.073-.107-.16c0-.09-.049-.162-.108-.162s-.107-.072-.107-.16c0-.088-.049-.16-.108-.16s-.107-.073-.107-.161c0-.088-.048-.16-.108-.16-.059 0-.107-.06-.107-.135.001-.342 3.703-2.135 7.126-3.451 2.047-.787 6.782-2.16 8.694-2.522.456-.086.61-.067 1.033.125.811.368 1.713.727 2.97 1.182 10.059 3.644 21.234 3.789 31.326.408 1.107-.371 3.67-1.363 4.402-1.704.233-.109.596-.047 2.465.417 3.252.808 5.976 1.67 8.298 2.628.37.153.916.372 1.211.487.296.115 1.432.662 2.525 1.215 1.792.906 1.985 1.03 1.958 1.257-.017.14-.077.269-.134.288-.058.02-.105.104-.105.188 0 .083-.048.151-.107.151-.06 0-.108.073-.108.161 0 .088-.048.16-.107.16-.06 0-.108.073-.108.161 0 .088-.048.16-.107.16s-.107.064-.107.141c0 .077-.097.244-.215.37-.118.127-.215.28-.215.342a.11.11 0 01-.108.111c-.059 0-.107.073-.107.16 0 .09-.048.161-.108.161-.059 0-.107.073-.107.161 0 .088-.048.16-.107.16-.06 0-.108.073-.108.161 0 .088-.036.16-.081.16-.045 0-.135.133-.201.295-.393.964-.397.988-.255 1.451.207.678.366 1.038.456 1.038.045 0 .081.051.081.113 0 .188.88 1.075 1.393 1.403.264.168 1.037.478 1.719.687 2.261.695 2.651.862 3.812 1.636 1.424.949 2.275 1.975 2.636 3.178.181.605.067 2-.22 2.698l-.198.482-.242.589c-.078.191-.179.348-.224.348-.044 0-.08.051-.08.114s-.146.325-.323.581c-.177.257-.322.514-.322.57 0 .194.33.23.758.083 1.223-.42 2.738-1.717 3.432-2.938.088-.156.185-.308.215-.337.144-.144.537-1.008.537-1.182 0-.108.043-.224.096-.256.18-.111.484-2.372.476-3.54-.008-1.139-.148-2.507-.264-2.578-.051-.032-.093-.221-.093-.42 0-.199-.049-.392-.108-.428-.059-.036-.107-.204-.107-.372s-.06-.33-.134-.36c-.074-.03-.04-.058.074-.062.245-.01.897.412 1.52.983.418.383 1.118 1.549 1.118 1.861a.88.88 0 00.098.333c.347.659.379 1.578.159 4.656-.046.656-.028.829.087.829.208 0 .41-.27.838-1.124.206-.412.412-.765.456-.785.045-.019.081-.104.081-.189 0-.084.043-.236.095-.339.053-.102.155-.33.228-.507.073-.176.175-.404.227-.507.052-.102.095-.28.095-.395 0-.115.043-.235.096-.268.052-.032.123-.216.156-.408.034-.191.116-.613.182-.937.332-1.616.247-6.192-.122-6.579-.053-.056-.097-.257-.097-.448s-.048-.377-.107-.413c-.06-.037-.108-.16-.108-.276 0-.115-.043-.293-.095-.395a6.89 6.89 0 01-.202-.454c-.225-.563-.834-1.768-.911-1.802-.045-.02-.081-.082-.081-.138 0-.13-1.015-1.633-1.386-2.053a71.906 71.906 0 00-.735-.81c-.335-.365-.456-.586-.457-.837 0-.188.048-.372.107-.408.059-.036.107-.18.107-.321 0-.14.049-.285.108-.321.059-.037.107-.23.107-.428 0-.2.048-.392.107-.429.142-.087.142-2.268 0-2.355-.059-.036-.107-.184-.107-.327 0-.144-.048-.262-.107-.262s-.108-.055-.108-.122c0-.133-.395-.528-.948-.948-.194-.147-.443-.34-.552-.428a7.85 7.85 0 00-.436-.322c-.13-.088-.437-.306-.682-.483-.652-.475-1.774-1.19-2.861-1.822a54.985 54.985 0 01-1.089-.65c-.591-.368-4.332-2.216-5.277-2.608-.458-.19-.833-.379-.833-.42 0-.042.157-.248.35-.457.192-.21.47-.54.617-.736.148-.195.378-.464.51-.599.133-.134.242-.273.242-.31 0-.036.06-.127.135-.202.074-.075.255-.296.403-.49a7.48 7.48 0 01.381-.473c.063-.064.325-.43.584-.813.258-.382.51-.711.558-.731.049-.02.088-.104.088-.187 0-.084.049-.152.108-.152s.107-.072.107-.16c0-.089.048-.161.108-.161.059 0 .107-.072.107-.16 0-.09.048-.161.107-.161a.11.11 0 00.108-.113c0-.062.185-.388.412-.723.226-.335.48-.766.563-.957.083-.192.188-.348.233-.348.044 0 .081-.069.081-.152 0-.084.037-.168.081-.187.045-.02.25-.373.456-.785.207-.413.412-.766.456-.785.045-.02.081-.129.081-.241 0-.113.049-.206.108-.206s.107-.096.107-.214c0-.117.049-.214.108-.214s.107-.096.107-.214.049-.214.108-.214.107-.068.107-.15c0-.083.091-.336.202-.562.112-.227.311-.653.444-.947.225-.5.28-.632.522-1.258.155-.402.356-.873.456-1.07.053-.101.095-.28.095-.394 0-.115.049-.24.108-.276.059-.036.107-.18.107-.32 0-.141.048-.286.107-.322.06-.037.108-.181.108-.321s.048-.285.107-.321c.06-.037.108-.181.108-.322 0-.14.048-.284.107-.32.06-.037.108-.206.108-.375 0-.17.048-.339.107-.375.06-.037.108-.205.108-.375s.048-.338.107-.374c.059-.037.107-.23.107-.429 0-.199.049-.391.108-.428.059-.036.107-.222.107-.413 0-.19.044-.393.097-.449.053-.055.123-.294.155-.53.033-.235.113-.693.178-1.016.592-2.962.79-5.233.793-9.1.003-3.918-.162-5.826-.788-9.1a31.578 31.578 0 01-.18-1.046c-.038-.251-.11-.483-.162-.515-.05-.031-.093-.244-.093-.472 0-.229-.048-.446-.107-.482-.06-.037-.108-.169-.108-.293 0-.241-.178-.868-.335-1.178a1.19 1.19 0 01-.094-.448c0-.145-.049-.293-.108-.33-.059-.036-.107-.204-.107-.374s-.049-.338-.108-.375c-.059-.036-.107-.16-.107-.275 0-.115-.049-.305-.108-.422l-.215-.425a1.038 1.038 0 01-.107-.376.931.931 0 00-.095-.35 6.377 6.377 0 01-.2-.453 31.112 31.112 0 00-.242-.59 27.15 27.15 0 01-.43-1.07c-.213-.57-1.816-3.906-1.93-4.014-.032-.03-.158-.246-.28-.482-.313-.6-.519-.954-.592-1.017-.034-.03-.13-.21-.214-.401-.084-.192-.189-.348-.233-.348-.045 0-.081-.072-.081-.16 0-.09-.037-.161-.082-.161-.044 0-.141-.136-.215-.301a2.299 2.299 0 00-.321-.509 2.841 2.841 0 01-.34-.5 2.715 2.715 0 00-.349-.504c-.109-.116-.198-.262-.198-.323a.11.11 0 00-.107-.111.107.107 0 01-.108-.106c0-.1-.204-.38-.51-.702-.074-.077-.134-.171-.134-.21 0-.037-.06-.13-.134-.204a6.678 6.678 0 01-.403-.493c-.148-.197-.39-.505-.538-.685l-.43-.525c-1.147-1.409-3.393-3.737-4.717-4.89-.372-.324-.81-.71-.975-.857a20.26 20.26 0 00-1.291-1.069 12.114 12.114 0 01-.625-.508c-.078-.075-.175-.136-.216-.136-.04 0-.196-.108-.346-.24-.441-.393-3.036-2.15-3.984-2.7-2.433-1.41-3.938-2.15-6.862-3.375-2.074-.869-5.915-1.995-8.434-2.473C57.532.062 52.338-.204 48.308.16zm9.422.523c5.897.7 10.746 2.146 16.015 4.775 1.156.576 2.277 1.161 2.491 1.3.214.138.594.371.843.518.882.52 3.001 1.947 3.298 2.222.08.073.178.134.218.135.04.001.227.134.415.295.188.16.499.413.69.56.192.147.4.316.464.376s.332.277.596.482c.747.579 1.32 1.108 2.951 2.729 1.559 1.547 2.319 2.375 3.428 3.732.186.228.4.477.473.554.074.077.134.172.134.21 0 .037.06.132.135.21.246.257.463.539.83 1.076.202.293.405.55.453.569.047.02.087.104.087.187 0 .084.048.152.107.152s.107.072.107.16c0 .089.049.161.108.161s.107.072.107.16c0 .089.049.161.108.161s.107.072.107.16c0 .09.049.161.108.161s.107.073.107.161c0 .088.048.16.108.16.059 0 .107.073.107.161 0 .088.048.16.107.16.06 0 .108.073.108.161 0 .089.043.16.095.16.052 0 .122.085.156.188s.208.428.388.723c.179.294.408.704.51.91.1.206.21.398.245.428.069.059 1.589 3.134 1.72 3.48.099.259.525 1.212.658 1.47.053.102.096.283.096.401 0 .119.048.216.107.216.06 0 .108.097.108.215 0 .119.055.324.124.455.266.514.305.619.305.82 0 .116.049.24.108.276.059.036.107.181.107.321s.049.285.108.321c.059.037.107.181.107.322 0 .14.048.284.107.32.06.037.108.206.108.375 0 .17.048.339.107.375.06.036.108.205.108.375s.043.335.095.367c.053.033.123.216.156.408l.127.724c.036.206.108.47.16.588.051.118.118.383.149.59.03.205.108.639.173.963.609 3.069.788 5.144.787 9.099 0 4.278-.24 6.683-1.005 10.117a16 16 0 00-.177.937c-.032.221-.102.429-.154.461-.053.033-.096.198-.096.368 0 .17-.049.338-.108.374-.059.037-.107.23-.107.429 0 .199-.049.392-.108.428-.059.036-.107.18-.107.321 0 .14-.049.285-.108.321-.059.037-.107.205-.107.375s-.048.338-.108.375c-.058.036-.107.174-.107.306s-.038.285-.085.341c-.047.056-.147.295-.222.53a7.718 7.718 0 01-.457 1.15.91.91 0 00-.095.337c0 .084-.104.362-.23.617a9.059 9.059 0 00-.308.68 9.06 9.06 0 01-.307.679c-.126.256-.23.532-.23.615 0 .083-.048.15-.107.15-.06 0-.108.066-.108.146 0 .176-.665 1.5-.779 1.55-.044.02-.08.124-.08.232 0 .108-.037.212-.08.232-.045.02-.202.276-.349.57-.146.295-.291.56-.322.59-.105.102-.444.696-.504.883-.033.103-.102.187-.154.187-.053 0-.095.05-.095.11 0 .136-1.935 3.035-2.06 3.084-.049.02-.09.104-.09.187s-.037.152-.083.152c-.047 0-.163.132-.26.294a4.283 4.283 0 01-.372.521c-.109.125-.318.384-.466.576-.3.391-.45.572-1.104 1.328-.823.95-.773.93-1.498.61-.253-.11-.702-.299-.997-.418l-1.075-.432c-.295-.119-.537-.263-.537-.32 0-.086.726-.965 1.286-1.56.062-.064.33-.383.595-.706.266-.324.52-.605.564-.625.044-.02.08-.08.08-.133 0-.09.074-.19.574-.777.108-.127.276-.364.372-.526.096-.162.213-.294.26-.294.045 0 .083-.069.083-.152 0-.084.04-.168.09-.188.124-.05 1.414-1.982 1.414-2.119a.11.11 0 01.108-.11c.059 0 .107-.052.107-.115s.135-.316.3-.562c.163-.246.369-.592.456-.769.086-.177.183-.345.214-.375.106-.099 1.913-3.84 2.16-4.47.197-.506.337-.835.428-1.015.053-.102.095-.28.095-.395 0-.115.04-.233.087-.262.047-.03.153-.3.236-.602.082-.302.188-.573.236-.602.047-.03.086-.168.086-.308 0-.14.048-.285.107-.321.06-.037.108-.168.108-.293 0-.241.178-.868.335-1.178a1.36 1.36 0 00.095-.502c0-.174.048-.346.107-.382.06-.037.107-.222.107-.413 0-.191.044-.393.097-.449.053-.056.123-.294.156-.53a20.3 20.3 0 01.177-1.017c.455-2.277.791-5.756.796-8.243.003-1.353-.176-4.049-.372-5.62a83.677 83.677 0 01-.168-1.445c-.033-.324-.104-.635-.158-.69-.054-.057-.098-.3-.098-.542 0-.241-.043-.484-.096-.54-.053-.056-.122-.295-.153-.53a9.254 9.254 0 00-.18-.91 12.11 12.11 0 01-.181-.83c-.032-.193-.101-.376-.154-.408-.052-.033-.095-.198-.095-.368 0-.17-.049-.338-.108-.375-.059-.036-.107-.205-.107-.374 0-.17-.049-.338-.108-.375-.059-.036-.107-.18-.107-.321 0-.14-.048-.285-.108-.321-.059-.037-.107-.181-.107-.321s-.048-.285-.107-.322c-.06-.036-.108-.16-.108-.275 0-.115-.043-.293-.095-.395a7.77 7.77 0 01-.215-.48l-.241-.59c-.067-.161-.158-.39-.2-.508-.174-.47-.31-.779-.631-1.433-.186-.376-.337-.75-.337-.83 0-.08-.048-.145-.107-.145-.06 0-.108-.097-.108-.214 0-.118-.048-.215-.107-.215-.06 0-.108-.096-.108-.214 0-.117-.048-.214-.107-.214-.06 0-.108-.096-.108-.214s-.036-.214-.082-.214c-.045 0-.165-.18-.267-.401a11.35 11.35 0 00-.513-.937c-.181-.294-.357-.62-.39-.723-.034-.103-.105-.187-.157-.187-.052 0-.095-.051-.095-.115 0-.063-.145-.324-.322-.58-.177-.258-.322-.497-.322-.533 0-.036-.09-.16-.198-.277a2.702 2.702 0 01-.35-.504 2.365 2.365 0 00-.281-.43 3.292 3.292 0 01-.319-.455c-.103-.175-.226-.318-.272-.318-.047 0-.084-.051-.084-.114s-.06-.176-.135-.251a6.671 6.671 0 01-.403-.493 24.78 24.78 0 00-.537-.685l-.43-.525c-1.359-1.669-3.517-3.852-5.258-5.318a35.982 35.982 0 01-.692-.594c-.623-.58-3.781-2.784-5.46-3.81-.724-.443-3.263-1.74-4.33-2.21-1.827-.808-2.272-.982-3.873-1.51-4.607-1.52-8.119-2.126-12.912-2.229-6.747-.144-12.493.975-18.67 3.637-1.264.545-3.937 1.944-4.941 2.586-.178.114-.54.341-.806.506a12.17 12.17 0 00-.591.383 21.1 21.1 0 01-.591.402c-.524.346-2.598 1.875-2.686 1.98-.03.034-.194.17-.366.302-1.382 1.058-4.62 4.257-5.944 5.874-.418.51-.53.654-.996 1.269-.266.352-.52.656-.564.676-.044.02-.08.1-.08.178 0 .078-.04.159-.09.178-.124.05-1.844 2.626-1.844 2.763 0 .06-.043.11-.095.11-.053 0-.122.084-.155.187-.06.186-.399.781-.504.883-.03.03-.175.295-.322.59-.147.294-.304.55-.348.57-.044.02-.08.124-.08.232 0 .108-.037.212-.081.232-.116.052-.564.938-.564 1.117 0 .082-.049.15-.108.15s-.107.067-.107.15c0 .083-.104.36-.23.616a9.31 9.31 0 00-.308.68c-.043.117-.126.334-.185.48l-.215.536-.215.535-.222.536a9.67 9.67 0 00-.252.695c-.075.236-.174.474-.221.53-.047.056-.086.21-.086.342 0 .132-.048.27-.107.306-.06.036-.108.205-.108.375s-.048.338-.107.374c-.06.037-.108.205-.108.375s-.043.335-.095.367c-.053.033-.122.216-.154.408-.032.192-.113.566-.18.83a9.736 9.736 0 00-.176.857 2.81 2.81 0 01-.147.59 3.247 3.247 0 00-.158.641c-.035.236-.112.718-.171 1.07-.42 2.5-.569 4.43-.569 7.334 0 2.92.143 4.758.575 7.387.063.382.142.888.176 1.124.034.235.105.474.158.53.053.056.097.245.097.42 0 .176.048.479.107.675.06.195.15.512.2.703.269 1.005.367 1.328.455 1.497.053.103.097.304.097.449 0 .145.049.292.108.329.059.036.107.18.107.321 0 .14.048.285.107.321.06.037.108.181.108.321s.048.285.107.322c.06.036.108.16.108.275 0 .115.042.293.095.395.052.102.142.306.2.454.058.147.16.4.228.562.067.162.164.403.215.535.265.68 2.043 4.36 2.16 4.47.031.029.13.197.217.374.089.177.186.345.215.375.106.105.444.7.503.883.033.103.102.187.155.187.052 0 .095.063.095.14 0 .078.096.245.214.37.119.127.215.26.215.296 0 .1.674 1.063.773 1.103.048.02.087.08.087.133 0 .053.07.182.155.285.085.104.387.502.67.885.282.383.563.748.623.813.06.064.23.275.378.469.32.419.487.615 1.187 1.394.788.878 1.065 1.218 1.024 1.259-.033.032-1.017.423-2.839 1.127l-.575.221-.475-.527c-.816-.905-.94-1.053-1.437-1.709a15.2 15.2 0 00-.543-.692 5.07 5.07 0 01-.317-.428 3.675 3.675 0 00-.327-.428c-.142-.11-2.037-2.997-2.037-3.102 0-.06-.043-.11-.095-.11-.052 0-.122-.084-.156-.187s-.21-.429-.393-.723c-.183-.294-.36-.62-.394-.723-.034-.103-.104-.187-.156-.187-.052 0-.095-.096-.095-.214s-.048-.214-.107-.214c-.06 0-.108-.092-.108-.205 0-.113-.036-.221-.08-.241-.082-.036-.635-1.124-.904-1.775-.078-.192-.18-.348-.224-.348-.045 0-.081-.073-.081-.162a.925.925 0 00-.096-.348 28.858 28.858 0 01-.67-1.498 13.032 13.032 0 00-.429-1.015 1.034 1.034 0 01-.094-.395c0-.115-.049-.24-.108-.276-.059-.036-.107-.18-.107-.32 0-.141-.049-.286-.108-.322-.059-.036-.107-.18-.107-.321 0-.14-.048-.285-.108-.321-.059-.037-.107-.16-.107-.276a1.04 1.04 0 00-.094-.395c-.157-.31-.336-.936-.336-1.177 0-.125-.048-.257-.107-.293-.06-.037-.108-.205-.108-.375s-.048-.338-.107-.375c-.06-.036-.108-.229-.108-.428 0-.2-.048-.392-.107-.428-.06-.037-.107-.246-.107-.467 0-.22-.044-.446-.097-.502-.054-.056-.125-.319-.158-.583-.157-1.245-.194-1.46-.284-1.66-.053-.117-.122-.479-.152-.803a105.06 105.06 0 00-.184-1.713c-.166-1.456-.167-8.884-.001-10.33.218-1.897.469-3.4.877-5.246.065-.294.145-.692.178-.884.032-.192.102-.375.155-.407.052-.033.095-.222.095-.421 0-.2.049-.392.108-.429.059-.036.107-.205.107-.374 0-.17.049-.339.108-.375.059-.036.107-.205.107-.375s.048-.338.108-.374c.059-.037.107-.181.107-.322 0-.14.048-.284.107-.32.06-.037.108-.182.108-.322s.048-.285.107-.321c.06-.036.108-.184.108-.328 0-.143.048-.26.107-.26.06 0 .108-.098.108-.216 0-.119.042-.3.094-.402a6.38 6.38 0 00.201-.453c.113-.286.253-.637.429-1.07.32-.79 2.059-4.39 2.173-4.497.056-.052.457-.782.691-1.257.065-.132.155-.24.199-.24.044-.001.08-.053.08-.116s.145-.325.323-.582c.177-.256.322-.518.322-.58 0-.064.048-.116.107-.116.06 0 .108-.072.108-.16 0-.088.048-.16.107-.16.06 0 .108-.073.108-.161 0-.088.048-.16.107-.16.06 0 .108-.073.108-.161 0-.089.048-.161.107-.161.06 0 .108-.072.108-.16 0-.089.048-.161.107-.161.06 0 .107-.072.107-.16 0-.089.037-.161.082-.161.046 0 .202-.193.348-.428.146-.236.303-.429.348-.429.045 0 .082-.051.082-.114 0-.064.06-.176.134-.251.074-.075.255-.295.403-.488.148-.194.341-.436.43-.538.088-.102.282-.344.43-.537.276-.362.326-.419 1.504-1.724 1.2-1.33 3.16-3.231 4.405-4.272l.484-.406c.118-.099.432-.348.698-.553.266-.206.538-.423.604-.482.067-.06.23-.181.363-.27.132-.088.297-.208.365-.267.328-.283 2.997-2.06 3.954-2.631 5.874-3.51 12.638-5.685 19.8-6.366C50.34.39 55.75.45 57.73.684zm-5.372 7.55c0 .115.048.238.107.274.06.037.107.16.107.276a.99.99 0 00.1.395c.055.102.126.27.158.373.04.132.178.19.464.199.224.006.48.022.568.035.088.013.318.032.51.042.44.023.44.117 0 .418-.799.546-.992.775-.955 1.133.02.188.073.39.118.448.046.059.108.228.137.375.03.147.09.352.134.455.123.293-.073.225-.851-.294-.806-.54-.784-.54-1.66.123-.26.197-.514.358-.565.358-.128 0-.115-.508.016-.589.06-.036.107-.205.107-.374 0-.17.049-.339.108-.375.208-.128.104-.46-.222-.71-.71-.546-1.006-.832-.935-.903.041-.041.427-.098.858-.128.868-.058 1.051-.148 1.051-.514 0-.137.048-.278.107-.314.06-.037.108-.16.108-.276 0-.232.22-.634.348-.634.045 0 .082.093.082.207zm7.553.756c.03.265.097.65.15.857.092.365.115.379.93.55.459.097.86.201.89.232.03.03-.299.24-.732.466l-.787.41.014.536a4.6 4.6 0 00.093.828c.175.653-.022.647-.705-.023-.361-.354-.702-.644-.758-.644-.055 0-.388.144-.74.32-.61.308-1.025.413-.948.242.02-.044.197-.408.393-.81.406-.826.414-.79-.399-1.673-.24-.26-.416-.496-.39-.522.026-.026.438.014.916.088.812.126.878.121 1.021-.067.084-.11.155-.261.156-.335.002-.073.04-.134.085-.134.045 0 .15-.156.236-.348.326-.734.491-.727.575.027zm-14.602.102c.046.138.569 1.066.651 1.157.014.016.396-.023.849-.086.453-.063.87-.085.926-.05.056.034-.096.266-.338.514-.811.83-.81.823-.37 1.7.212.424.36.794.33.824-.03.03-.307-.056-.615-.19-1.21-.529-1.04-.547-1.802.2-.405.398-.704.617-.73.538-.025-.074.014-.38.086-.682.232-.966.159-1.137-.667-1.565-.4-.206-.726-.428-.726-.494 0-.065.206-.149.457-.185 1.045-.15 1.206-.242 1.347-.766.071-.267.13-.677.13-.912 0-.396.015-.418.208-.298a.7.7 0 01.264.295zm21.529 2.026c-.03.405-.014.806.034.892.082.145.413.31 1.256.624.195.073.337.183.316.245-.021.063-.41.226-.864.364l-.826.25v.889c0 .489-.03.92-.07.958-.084.085-.373-.239-.764-.856-.162-.255-.378-.49-.48-.524-.103-.032-.557.042-1.009.165-.451.124-.847.2-.878.168-.032-.032-.001-.057.068-.057s.125-.072.125-.16c0-.09.048-.161.108-.161.059 0 .107-.069.107-.152 0-.083.038-.168.085-.188.331-.14.73-1.16.452-1.16-.059 0-.107-.05-.107-.114 0-.063-.15-.331-.333-.596-.183-.265-.304-.51-.27-.545.035-.034.439.062.897.215l.834.279.322-.351c.178-.194.419-.48.536-.636.383-.511.52-.377.46.451zm-28.662-.442c0 .044.112.21.249.369.136.158.34.41.453.56.296.393.389.4 1.25.109.429-.146.818-.252.865-.236.047.016-.036.207-.184.424-.148.218-.27.446-.27.508a.11.11 0 01-.107.113c-.06 0-.108.072-.108.16 0 .089-.048.161-.107.161-.06 0-.107.096-.107.214s.048.214.107.214c.06 0 .107.072.107.16 0 .09.037.161.083.161.045 0 .201.193.347.429.146.235.312.428.37.428.066 0 .066.037 0 .103-.066.065-.407.025-.945-.113l-.841-.214-.207.237c-.114.131-.34.447-.5.701-.162.255-.325.463-.363.463-.12 0-.197-.313-.268-1.072l-.069-.733-.807-.248c-.443-.137-.811-.287-.818-.335-.006-.048.352-.244.795-.434l.806-.347.031-.931c.017-.512.078-.931.134-.931.057 0 .104.036.104.08zM34.17 15.8c-.035.036-.128.04-.206.009-.085-.035-.06-.06.065-.065.114-.005.177.02.141.056zm37.825.444c1.413.71 2.494 1.787 2.494 2.486 0 .112.048.234.108.27.059.037.107.151.107.254 0 .104.085.281.188.395.103.115.321.368.484.564.33.398.363.362.441-.463.028-.294.106-.8.175-1.124.155-.731.154-.713.055-1.231l-.082-.428.206.267c.195.252.72 1.291.99 1.959.15.37.161 2.286.014 2.377-.15.092-.135.626.022.781.1.1.1.129 0 .129-.071 0-.13-.047-.13-.104 0-.06-.418-.1-.993-.094-1.318.012-2.201-.324-3.069-1.17a4.118 4.118 0 00-.51-.412c-.326-.214-.24-.388.125-.25.15.056.667.104 1.15.105.484.002 1.058.044 1.275.094.34.08.385.068.327-.082a1.538 1.538 0 00-.287-.4 9.323 9.323 0 01-.435-.486c-.122-.148-.475-.34-.816-.444-.62-.19-1.322-.756-1.563-1.263-.068-.142-.255-.539-.415-.882-.16-.343-.457-.789-.66-.99-.202-.202-.333-.366-.29-.366.042 0 .532.228 1.089.508zm-38.118-.187c0 .058-.041.107-.091.107-.077 0-.426.648-.9 1.674-.145.311-.721.93-1.058 1.135-.152.092-.481.23-.732.304a1.645 1.645 0 00-.725.465l-.423.518c-.084.103-.154.232-.154.285a.178.178 0 01-.08.142c-.044.025-.008.023.08-.004.185-.056 2.94-.23 2.984-.189.016.015-.163.183-.398.374-.234.19-.535.44-.666.554-.133.114-.549.359-.925.543-.62.304-.776.335-1.672.33-.61-.003-1.016.04-1.063.114-.04.065-.113.077-.16.026-.048-.05-.027-.113.047-.14.15-.053.188-.565.042-.565-.09 0-.26-.904-.251-1.338.009-.45.161-1.238.25-1.293.052-.032.093-.175.093-.319 0-.144.037-.261.081-.262.044 0 .201-.264.35-.588.147-.323.3-.588.34-.588.04 0 .09-.085.11-.188.021-.103.042.15.046.562.004.412.065.99.134 1.285.07.294.156.764.192 1.045l.064.51.283-.296c.428-.447.764-.95.764-1.144 0-.094.044-.256.098-.358.055-.102.18-.372.28-.6.167-.381 1.06-1.352 1.245-1.352.044 0 .152-.071.24-.158.173-.173 1.224-.675 1.44-.69.075-.005.135.04.135.099zm-8.09 4.307c-.025.133-.047.05-.048-.186-.001-.235.02-.344.047-.242a1.2 1.2 0 01.002.428zm53.72.457c.062.117.162.334.22.481.058.147.157.388.219.536.348.818.369 2.719.033 2.997a1.64 1.64 0 00-.205.303c-.108.192-.111.284-.014.401.162.194.026.2-.167.008-.08-.08-.46-.174-.846-.21a3.78 3.78 0 01-1.271-.35c-.656-.33-2.25-1.844-1.805-1.716.645.186 2.158.35 2.225.243.038-.062.012-.13-.057-.154-.07-.023-.127-.092-.127-.154s-.104-.203-.232-.313c-.128-.11-.2-.233-.16-.273.04-.04.157.04.26.176.363.484 1.02 1.182 1.113 1.182.051 0 .094-.238.094-.528 0-.291.048-.56.107-.596.06-.036.108-.198.108-.36 0-.16.059-.351.131-.424.087-.086.13-.485.125-1.172-.005-.62.021-.89.063-.666.039.206.122.47.185.588zm-46.411-.525c-.036.036-.129.04-.206.009-.086-.034-.06-.06.065-.065.113-.005.177.02.14.056zm39.108 0c-.036.036-.129.04-.206.009-.086-.034-.06-.06.065-.065.113-.005.176.02.14.056zm-46.492.74c0 .207.043.46.097.562.222.426.386 1.19.386 1.805 0 .538.029.644.161.594.177-.068.645-.508.645-.606 0-.09.731-.804.824-.804.044 0-.11.192-.34.428-.256.261-.38.464-.318.521.097.089 1.42-.068 2.144-.254l.322-.083-.268.306c-1.168 1.329-1.939 1.766-3.25 1.844-.794.046-.833.038-.833-.18 0-.124-.048-.227-.108-.227-.059 0-.107-.118-.107-.261 0-.144-.048-.291-.107-.328-.06-.036-.108-.47-.108-.963 0-.494.049-.927.108-.964.059-.036.107-.182.107-.324 0-.142.097-.43.215-.64.118-.209.215-.475.215-.591 0-.116.048-.211.107-.211.06 0 .108.17.108.376zm27.436.762c.208.208.283.392.283.696 0 .228.048.414.107.414.06 0 .108.115.108.256 0 .141.138.404.308.585.538.575.54 1.758.002 2.384-.17.199-.31.466-.31.595 0 .14-.087.26-.215.302a.312.312 0 00-.215.302.49.49 0 00.215.369c.157.097.215.25.215.562 0 .236.06.53.134.655.108.182.108.237 0 .275-.074.027-.134.22-.134.427 0 .36.015.375.295.304.163-.042.831-.1 1.486-.13 1.888-.09 2.77.219 4.611 1.61.473.356.914.699.98.76.703.652 1.53 1.24 2.262 1.61 1.289.65 2.438.511 4.585-.557 1.437-.715 2.262-.75 2.865-.12.28.29.32.411.318.934-.003.356-.068.684-.162.807a1.124 1.124 0 00-.172.535c-.011.252-.025.272-.061.087-.039-.2-.117-.241-.464-.241-.283 0-.452.06-.526.187-.097.167-.11.16-.113-.058-.002-.135-.1-.348-.218-.475a.938.938 0 01-.215-.566c0-.185-.032-.369-.071-.408-.04-.04-.438.129-.887.373-1.736.947-2.33 1.162-3.209 1.16-1.185-.003-2.246-.422-3.964-1.567-1.8-1.2-2.831-1.63-4.332-1.804-.745-.087-1.9.095-2.527.398l-.481.233v.782c0 .45.046.782.107.782.06 0 .108.096.108.214 0 .117-.049.214-.108.214-.167 0-.146 20.709.022 20.977.102.163.098.263-.018.48-.115.214-.12.331-.021.546.069.15.125.393.125.538 0 .145.043.348.096.45.052.102.21.426.349.72.287.608.431.804.925 1.263.235.219.349.424.349.629 0 .203.055.303.166.303.092 0 .214.136.272.3.058.165.25.386.428.49.177.105.599.47.937.81.382.385.743.648.956.695.395.086.597.29.635.643.045.422.785 1.119 1.372 1.293.743.22.82.311.82.972 0 .712-.147.827-1.5 1.177-3.438.89-10.958.85-14.423-.077-1.075-.288-1.267-.455-1.267-1.104 0-.615.152-.784.87-.973.298-.078.639-.254.757-.39.118-.137.336-.385.483-.55.147-.166.247-.358.222-.428-.062-.171.117-.502.27-.502.23 0 1.051-.447 1.052-.572 0-.068.134-.228.296-.356.162-.127.409-.33.549-.452.14-.12.345-.248.456-.284.123-.039.202-.163.202-.317 0-.158.08-.278.212-.32.12-.038.254-.22.31-.423.054-.195.288-.55.519-.787.231-.237.533-.664.67-.95.403-.834.414-.867.62-1.89a.981.981 0 00-.08-.565c-.108-.2-.111-.29-.014-.388.19-.188.182-20.76-.007-21.08-.108-.182-.108-.237 0-.276.09-.033.134-.305.134-.846v-.798l-.494-.21c-1.528-.653-3.407-.482-5.281.48-.399.206-.99.566-1.316.801-1.663 1.205-2.84 1.667-4.246 1.667h-.97l-1.432-.723c-.788-.397-1.5-.723-1.583-.723-.1 0-.15.128-.15.39 0 .243-.073.453-.197.561a1.116 1.116 0 00-.274.495c-.27 1.13-.28 1.147-.556 1.078-.212-.053-.261-.025-.261.15 0 .252 0 .252.392.103.247-.093.324-.08.437.074.076.104.137.239.136.301-.001.063-.05.041-.108-.047-.092-.14-.118-.14-.206-.005-.129.2-.04.34.19.302.132-.022.18.05.18.268 0 .164.07.342.157.396.136.084.132.108-.026.169-.228.087-.247.476-.024.476.088 0 .162-.085.164-.188.003-.175.01-.174.116.006.079.135.078.234-.001.33-.083.099-.07.195.041.342.202.265.202.366.002.366-.096 0-.161-.098-.161-.244a.56.56 0 00-.215-.398c-.168-.12-.215-.277-.215-.72 0-.599-.05-.654-.38-.415-.181.133-.188.18-.061.418.08.147.118.333.086.412-.04.099-.06.085-.066-.043-.006-.118-.099-.19-.25-.196-.133-.005-.182-.033-.108-.062.168-.068.176-.426.012-.527a1.03 1.03 0 00-.349-.1 7.926 7.926 0 01-.307-.038c-.045-.008-.08-.146-.078-.308.003-.252.02-.267.113-.107.06.103.155.187.212.187.151 0 .123-.402-.033-.465-.104-.042-.102-.076.01-.155.093-.064.144-.312.142-.677-.003-.477.017-.54.114-.362a.987.987 0 00.226.284c.192.127.502-.164.502-.47 0-.253-.044-.296-.3-.296-.166 0-.36.058-.43.128-.1.1-.13.088-.13-.057 0-.103-.096-.29-.214-.417-.164-.175-.215-.377-.215-.852 0-.343.048-.622.107-.622.06 0 .108-.055.108-.121 0-.203.436-.513.825-.585.578-.108 1.155.032 2.218.54 1.516.724 2.135.916 2.961.916.819 0 1.261-.123 1.893-.524.432-.275 1.615-1.141 1.839-1.347 1.328-1.222 2.953-2.203 4.013-2.422.593-.123 2.71-.077 3.2.07.219.066.241.037.241-.315 0-.213-.048-.387-.107-.387-.15 0-.135-.251.024-.41.072-.071.116-.3.098-.509-.024-.278.027-.43.191-.572.286-.247.29-.614.009-.703-.141-.045-.215-.163-.215-.343a.699.699 0 00-.188-.449c-.342-.317-.457-.644-.457-1.305 0-.636.146-.99.605-1.461.07-.073.103-.23.072-.348-.04-.155-.005-.216.128-.216.146 0 .17-.06.116-.278-.087-.343.128-.853.42-.994.371-.18.66-.13.955.162zm-30.23 2.83c0 .28.242.946.552 1.527.058.108.11.479.114.825.008.58.025.621.209.523.11-.058.2-.14.2-.183 0-.108.492-.665.588-.665.044 0 .052.072.017.16-.036.096 0 .161.09.161.29 0 1.614-.339 1.744-.447.073-.06.18-.092.239-.072.234.081-1.227 1.664-1.819 1.972a4.559 4.559 0 01-.96.315c-.379.078-.623.192-.698.327a1.728 1.728 0 01-.169.26 2.62 2.62 0 00-.214.375 2.595 2.595 0 01-.215.375c-.112.11-.322.537-.322.652 0 .073.073.089.188.04.103-.044.444-.168.756-.275.313-.108.715-.299.893-.425.354-.251.529-.224.263.04-.092.092-.166.197-.166.235 0 .143-.698 1.086-1.07 1.445-.384.372-.97.676-1.531.796-.282.06-.374.199-.754 1.131-.06.148-.151.352-.203.454a1.05 1.05 0 00-.095.401c0 .119-.049.216-.108.216s-.107.084-.106.187c.001.11.034.142.081.075.043-.062.408-.278.81-.481.401-.204.822-.454.934-.556.233-.213.38-.08.23.208-.054.106-.207.418-.34.695-.334.7-.841 1.217-1.483 1.513-.737.34-.878.473-.878.828 0 .166-.048.331-.107.368-.06.036-.108.253-.108.481 0 .229-.048.446-.107.482-.11.068-.154.696-.05.696.033 0 .174-.108.314-.24.14-.133.5-.41.799-.616.299-.206.545-.445.546-.53.002-.113.035-.123.12-.038.117.116.004.65-.238 1.128a.937.937 0 00-.095.348c0 .09-.048.162-.107.162s-.107.063-.107.14c0 .199-.628.844-1.098 1.13-.283.171-.432.358-.51.637-.143.513-.146 2.161-.004 2.161a.11.11 0 00.108-.11c0-.06.29-.39.644-.73.355-.34.645-.71.645-.82 0-.16.027-.175.131-.071.104.103.104.175 0 .34-.072.116-.131.429-.131.695 0 .267-.043.569-.096.67-.053.103-.207.42-.343.703-.233.487-.746 1.036-.966 1.036-.055 0-.1.55-.1 1.231 0 .978.031 1.231.15 1.231.081 0 .235-.131.34-.291.105-.16.28-.387.388-.502.109-.116.197-.274.197-.351 0-.077.048-.14.107-.14.06 0 .109-.133.11-.295 0-.23.024-.259.105-.134.058.089.105.519.106.956.002 1.093-.213 1.75-.805 2.448-.363.428-.364.448-.097 2.248.07.476.213.537.413.176.063-.114.139-.231.168-.26.22-.22.538-1.062.54-1.43 0-.326.029-.402.105-.284.057.088.105.426.107.75 0 .323.053.774.117 1 .083.3.08.563-.011.964-.151.66-.342 1.14-.454 1.14-.045 0-.081.072-.081.16 0 .089-.054.161-.12.161-.078 0-.095.122-.049.348.04.192.099.505.132.697.033.192.104.375.156.408.053.032.096.18.096.328 0 .278.246.615.363.498.036-.037.066-.155.066-.263 0-.108.049-.196.108-.196s.107-.093.107-.208c0-.114.049-.237.108-.274.059-.036.115-.412.124-.835.01-.424.038-.604.063-.401.024.203.108.42.186.481.187.15.284.659.345 1.818.03.567.003 1.056-.066 1.204l-.25.544c-.073.162-.177.326-.231.364-.091.066-.026.307.284 1.054l.195.482c.263.671.375.91.427.91.032 0 .12-.23.196-.509.076-.28.178-.585.228-.678.05-.094.125-.444.167-.778.086-.684.227-.868.325-.422.035.165.103.395.15.513l.191.482c.488 1.22.468 1.885-.088 3.028-.197.404-.197.405.072.856a4.8 4.8 0 01.331.639c.034.103.104.187.157.187.052 0 .095.064.095.14 0 .078.096.245.215.371.118.126.215.292.216.368.001.098.032.092.106-.022.057-.089.105-.452.106-.808 0-.357.047-.694.104-.75.056-.056.117-.487.134-.958.023-.592.061-.79.125-.642.05.117.26.566.469.997.756 1.57.84 2.528.32 3.633-.125.266-.02.537.39 1.013.127.148.353.428.5.622.526.69.754.823.682.399-.08-.466.133-3.356.23-3.132.052.118.121.239.155.268.1.087.417.655.717 1.285l.403.846c.175.366.145 2.2-.04 2.422-.129.154-.038.282.76 1.069.5.492.946.857.992.811.047-.045.026-.302-.046-.57-.105-.391-.102-.64.013-1.249.111-.586.116-.823.02-1.033a1.69 1.69 0 01-.125-.588c0-.174-.048-.317-.108-.317-.059 0-.107-.078-.107-.175 0-.13.056-.104.215.097.118.15.215.325.215.39 0 .064.048.117.107.117.06 0 .108.051.108.114s.06.178.134.256c.298.313.51.6.51.692 0 .054.037.113.08.133.045.02.196.276.335.57.14.295.297.62.35.722.052.102.095.739.095 1.414v1.229l-.457.118-.832.218c-.562.148-1.287.121-1.942-.072-.577-.17-1.393-.54-1.497-.677-.029-.039-.295-.209-.59-.378-.296-.168-.562-.341-.591-.384a.495.495 0 00-.215-.129c-.089-.029-.016-.024.161.01.734.14 3.6-.032 3.6-.218 0-.053-.351-.433-.78-.844l-.779-.749-.625.064c-.76.078-1.663-.096-2.383-.457-.53-.267-1.793-1.171-1.862-1.334-.02-.046-.137-.084-.26-.084s-.193-.031-.155-.069c.037-.037.275-.01.528.059.253.07 1.07.137 1.816.149 1.167.018 1.348-.001 1.295-.14a.968.968 0 00-.174-.277 7.272 7.272 0 01-.382-.472 8.48 8.48 0 00-.379-.472 6.01 6.01 0 01-.338-.435c-.216-.301-.272-.319-1.028-.333-.663-.012-.918-.072-1.492-.354-.38-.186-.904-.533-1.164-.769a12.894 12.894 0 00-.748-.635c-.26-.194-.263-.207-.051-.21.124-.002.366.04.537.095.315.1 2.79.245 2.54.15-.073-.029-.133-.1-.133-.158 0-.058-.145-.315-.323-.572-.177-.257-.322-.518-.322-.581 0-.063-.048-.115-.108-.115-.059 0-.107-.056-.107-.124s-.123-.284-.274-.481c-.232-.303-.342-.358-.712-.358-.55 0-1.602-.504-2.214-1.062-.249-.227-.454-.454-.455-.505 0-.051-.158-.206-.349-.344l-.347-.252.322.072c.177.04.685.135 1.128.21.443.076.987.175 1.209.219.43.085.518-.043.308-.454a8.742 8.742 0 01-.227-.507 8.734 8.734 0 00-.228-.507.902.902 0 01-.095-.332c0-.08-.073-.29-.161-.468-.139-.276-.239-.332-.692-.385a3.315 3.315 0 01-.94-.274c-.399-.205-1.215-.889-1.215-1.018 0-.084-.288-.434-.729-.884-.237-.243-.299-.36-.188-.36.09 0 .165.035.165.08 0 .11.801.423 1.435.561.287.063.719.209.96.325.241.116.454.21.472.21.087 0 .02-.53-.074-.588-.059-.036-.107-.205-.107-.375s-.049-.338-.108-.374c-.059-.037-.107-.181-.107-.321s-.048-.285-.108-.322c-.059-.036-.108-.195-.11-.354-.005-.4-.194-.606-.695-.763-.56-.175-1.405-.738-1.57-1.047-.073-.134-.172-.244-.221-.244-.05 0-.09-.072-.09-.16 0-.09-.036-.161-.08-.161-.045 0-.15-.157-.234-.348-.083-.192-.203-.382-.265-.423-.062-.04-.082-.105-.044-.143.038-.038.206.03.373.149.167.12.612.32.989.443.377.124.755.296.84.38.323.322.43.19.33-.406-.05-.31-.135-.851-.186-1.205-.164-1.125-.194-1.183-.764-1.45-.584-.272-1.054-.73-1.287-1.255-.085-.19-.19-.346-.235-.346-.045 0-.081-.096-.081-.214 0-.117-.048-.214-.108-.214-.059 0-.107-.096-.107-.214s-.048-.214-.107-.214c-.06 0-.108-.08-.108-.18 0-.155.032-.149.242.042.133.122.483.342.779.49.295.148.726.419.956.602.231.183.425.32.43.305a49.19 49.19 0 00-.024-1.501l-.036-1.473-.529-.345c-.29-.19-.529-.373-.529-.407 0-.034-.084-.155-.188-.27a2.491 2.491 0 01-.335-.528 16.5 16.5 0 00-.241-.507 1.349 1.349 0 01-.095-.502c0-.174-.048-.346-.108-.383-.059-.036-.105-.148-.104-.247.003-.145.051-.128.245.087.132.147.444.406.692.575.249.169.593.441.765.605l.313.298.066-.324c.035-.179.065-.743.065-1.254 0-.576.048-.976.128-1.056.1-.099.014-.242-.379-.637-.54-.543-.696-.794-.915-1.473-.158-.49-.13-1.743.032-1.4.053.113.378.49.722.839.345.348.627.678.627.731 0 .054.048.098.107.098.06 0 .108-.169.108-.375s.048-.374.107-.374.107-.207.107-.46c0-.254.043-.507.094-.563.051-.056.122-.324.157-.595.055-.43.03-.525-.201-.741-.145-.136-.264-.312-.264-.39 0-.078-.049-.142-.108-.142s-.107-.093-.107-.208c0-.114-.042-.233-.094-.265-.148-.09-.24-1.055-.163-1.708.065-.55.257-.755.257-.275 0 .115.048.208.107.208.06 0 .108.05.108.113 0 .062.145.267.323.455.178.188.383.475.456.636.073.162.157.294.187.294.076-.001.323-.548.323-.718 0-.077.042-.224.095-.326.052-.103.154-.33.227-.507a8.71 8.71 0 01.227-.507c.151-.296.112-.56-.12-.807-.118-.126-.214-.294-.214-.373 0-.08-.041-.19-.09-.246-.05-.056-.154-.378-.232-.717-.111-.48-.115-.706-.018-1.029.069-.228.13-.746.138-1.151l.012-.737.128.482c.194.728.233.82.716 1.677.113.2.207.422.209.494.001.072.07.218.152.326.138.182.162.167.34-.214.105-.226.218-.434.25-.463.034-.03.133-.199.221-.375a2.57 2.57 0 01.215-.375c.03-.03.122-.185.206-.347.136-.262.128-.34-.07-.749-.414-.853-.48-1.126-.422-1.76.081-.888.187-1.419.298-1.487.052-.032.095-.251.095-.487 0-.258.043-.402.108-.362.059.037.107.208.107.382zm59.52.146c0 .113.046.354.1.535.386 1.294.362 1.922-.11 2.881-.112.227-.203.505-.203.617 0 .193.19.618.33.738.035.03.131.21.215.402.083.191.188.348.233.348.045 0 .081.096.081.214 0 .117.049.214.108.214s.107.072.107.16c0 .089.048.161.108.161.059 0 .107-.093.107-.208 0-.114.048-.237.107-.274.06-.036.108-.16.108-.274 0-.114.043-.207.095-.207.052 0 .121-.085.154-.188s.143-.332.244-.508c.321-.561.366-.685.376-1.043l.009-.349.1.321c.148.48.152 2.932.004 3.08a.508.508 0 00-.123.314c0 .106-.048.192-.107.192-.06 0-.108.073-.108.161 0 .088-.048.16-.107.16-.06 0-.107.146-.107.323 0 .178.048.419.107.535l.215.426c.059.117.107.286.107.376 0 .09.043.247.095.35.052.102.157.318.233.48.162.345.317.384.317.08 0-.118.048-.214.107-.214.06 0 .108-.049.108-.108 0-.06.145-.26.322-.444.177-.185.323-.402.323-.481 0-.08.048-.145.107-.145s.107-.123.107-.274c0-.155.047-.245.108-.208.06.037.107.535.107 1.125s-.047 1.087-.107 1.123c-.06.037-.108.16-.108.274 0 .115-.048.208-.107.208-.06 0-.107.065-.107.145 0 .08-.146.296-.323.48-.323.338-.406.596-.226.706.053.033.126.265.164.515.165 1.113.198 1.264.288 1.32.053.032.097.176.097.32 0 .26.21.383.218.127.002-.073.292-.423.644-.776.352-.353.64-.702.64-.776.001-.074.05-.134.109-.134.147 0 .136.915-.016 1.384-.256.787-.448 1.115-.921 1.566-.44.421-.479.497-.411.818.04.194.107.847.147 1.45l.073 1.097.533-.481c.293-.265.566-.481.606-.481.139 0 .741-.621.743-.766.001-.11.025-.107.103.016.064.1.063.197-.002.262-.057.056-.104.201-.105.322 0 .12-.075.412-.165.648-.09.235-.191.512-.225.615-.035.103-.105.187-.158.187-.052 0-.094.056-.094.123 0 .158-.511.643-.948.9-.337.199-.342.212-.342 1.03 0 .455-.052 1.069-.115 1.364-.064.295-.1.634-.08.754.032.205.054.2.367-.093.183-.171.639-.465 1.012-.653.712-.358.885-.488 1-.75.039-.087.04.01.004.216-.036.206-.097.399-.135.428-.037.03-.188.294-.335.588-.434.87-.811 1.272-1.472 1.57-.565.255-.598.31-.698 1.16-.128 1.085-.247 1.756-.337 1.901-.122.196.082.163.495-.08.2-.117.638-.307.974-.422.336-.116.718-.285.85-.376.365-.255.442-.198.197.145-.123.171-.223.364-.223.428 0 .065-.048.117-.107.117-.06 0-.108.073-.108.161 0 .088-.048.16-.107.16s-.107.053-.107.116c0 .064-.187.294-.415.512-.366.35-.696.532-1.603.882-.135.052-.262.155-.283.23l-.168.616a4.607 4.607 0 01-.228.667c-.053.103-.097.28-.097.396 0 .115-.048.239-.107.275-.06.036-.108.174-.108.306s-.058.298-.129.368c-.203.203.06.161.531-.083.225-.117.65-.259.944-.315.625-.119 1.362-.41 1.469-.58.04-.065.102-.09.136-.057.077.077-.6.938-1.255 1.593-.595.594-1.132.873-1.806.938-.394.038-.511.1-.618.325-.072.153-.131.34-.131.418a.894.894 0 01-.095.327 7.775 7.775 0 00-.215.48c-.511 1.255-.506 1.19-.095 1.107.193-.039.707-.12 1.143-.181.435-.061.913-.157 1.062-.214.15-.056.29-.084.311-.062.023.022-.27.358-.65.746-.803.82-1.594 1.26-2.428 1.35-.476.052-.612.111-.697.305-.059.133-.143.24-.188.24-.045 0-.082.052-.082.116 0 .062-.145.324-.322.58-.178.258-.323.52-.323.582 0 .063-.036.115-.08.115-.045 0-.135.117-.2.259l-.12.257 1.033-.05c.568-.029 1.265-.102 1.549-.164.284-.062.536-.092.56-.068.08.079-1.443 1.31-1.913 1.546-.575.29-1.6.504-2 .417-.358-.079-.514.054-1.191 1.014-.145.206-.35.468-.455.582-.105.115-.191.267-.191.34 0 .072-.049.147-.109.167-.278.09 2.69-.035 3.103-.132.259-.06.497-.084.529-.052.032.032 0 .059-.072.059a.487.487 0 00-.26.109c-.688.577-1.724 1.25-2.263 1.468-.528.214-.865.27-1.691.283l-1.032.016-.419.427c-.23.235-.602.584-.827.776-.254.217-.355.365-.268.393.536.167 2.954.27 3.578.15.177-.033.237-.04.134-.014-.104.025-.188.085-.188.133s-.145.147-.323.22c-.177.073-.322.168-.322.21 0 .043-.458.308-1.018.588-1.248.626-1.925.712-3.226.41l-.86-.2-.068-.557c-.038-.306-.097-.63-.132-.72-.062-.162.093-1.08.253-1.498.178-.464.597-1.286.673-1.32.044-.02.08-.08.08-.133 0-.091.213-.379.511-.692.074-.078.134-.193.134-.256s.049-.115.108-.115.107-.072.107-.16c0-.088.048-.16.108-.16.137 0 .14.501.003.586-.06.037-.1.74-.095 1.668.01 1.84-.092 1.78 1.07.617l.715-.715-.104-.463c-.193-.855-.218-1.4-.085-1.843.136-.451.75-1.789.866-1.885.035-.03.133-.21.216-.401.084-.191.189-.348.233-.348.045 0 .082-.072.082-.16 0-.089.054-.161.121-.161.083 0 .096.127.041.401a3.095 3.095 0 00-.066.616c.008.118.042.732.076 1.365.034.633.097 1.15.14 1.15.09 0 .547-.503.547-.603 0-.037.088-.145.195-.24.107-.096.35-.4.54-.679.28-.409.324-.546.235-.722l-.218-.43c-.145-.288-.136-1.556.015-2.028.067-.21.26-.666.43-1.013.169-.347.307-.696.307-.776 0-.08.048-.146.107-.146.06 0 .108-.096.108-.214 0-.117.045-.214.1-.214.055 0 .125.446.156.99.03.545.094 1.325.141 1.734l.087.743.295-.447c.162-.245.295-.495.295-.555 0-.06.04-.11.088-.11.048 0 .154-.168.235-.374.08-.206.18-.375.222-.375.158 0 .192-.483.057-.797-.078-.18-.197-.462-.264-.627-.151-.368-.163-1.857-.015-1.948.059-.037.107-.16.107-.276 0-.115.049-.305.108-.422l.214-.425c.06-.117.108-.31.108-.428 0-.119.048-.216.107-.216.06 0 .108.157.11.348.001.347.214 1.081.354 1.22.04.04.075.222.077.404.004.343.235.753.356.632.039-.039.07-.158.07-.266 0-.108.049-.197.108-.197s.107-.12.107-.267c0-.147.049-.268.108-.268s.107-.12.107-.268c0-.147.042-.267.093-.267.052 0 .122-.175.157-.389.049-.3 0-.502-.216-.883-.251-.443-.28-.61-.282-1.595-.002-.7.043-1.147.123-1.226.069-.069.125-.284.125-.478 0-.47.14-.448.308.048.075.22.177.498.227.615.05.118.156.371.234.563.079.19.168.347.197.347.098-.002.323-.572.323-.818 0-.131.049-.27.108-.306.059-.036.107-.205.107-.374 0-.17.049-.339.108-.375.16-.1.13-.31-.081-.542-.17-.187-.25-.333-.588-1.074-.101-.222-.068-.988.105-2.452l.09-.75.08.536c.046.294.156.656.245.803.089.147.189.352.221.455.033.103.103.187.155.187.052 0 .095.076.095.169 0 .102.073.154.188.132.193-.037.292-.43.418-1.657.052-.502.029-.583-.252-.876a2.851 2.851 0 01-.44-.598c-.07-.15-.18-.383-.24-.516-.062-.133-.098-.723-.081-1.311.02-.702.062-.996.121-.856.21.497.32.68.617 1.026.172.201.313.402.313.446 0 .18.19.062.306-.192.142-.312.171-2.083.034-2.083-.154 0-.984-.864-.984-1.025 0-.084-.048-.153-.108-.153-.059 0-.107-.093-.107-.207 0-.115-.048-.238-.107-.274-.06-.037-.108-.225-.108-.419 0-.194-.052-.5-.115-.682a1.628 1.628 0 01-.075-.631l.041-.302.12.28c.117.272 1.346 1.593 1.482 1.593.075 0 0-1.402-.113-2.105-.057-.358-.133-.472-.377-.573-.377-.156-1.178-.924-1.178-1.13 0-.084-.048-.153-.107-.153-.06 0-.108-.093-.108-.208 0-.114-.048-.237-.107-.274-.06-.036-.107-.18-.107-.32s-.049-.285-.108-.322c-.133-.082-.143-.589-.011-.589.052 0 .12.065.15.144.031.079.325.321.653.538.329.218.67.498.758.625.15.213.167.216.236.036a.5.5 0 00-.05-.392c-.068-.11-.124-.365-.124-.568 0-.204-.049-.4-.108-.436-.059-.037-.107-.232-.107-.435 0-.202-.049-.368-.108-.368s-.107-.067-.107-.148c0-.082-.267-.256-.594-.389-.9-.363-1.218-.733-1.909-2.22-.144-.31-.023-.43.22-.216.178.157 1.461.832 1.582.832.09 0 .065-.414-.039-.617a6.255 6.255 0 01-.2-.454c-.378-.961-.506-1.114-1.105-1.32-.518-.18-1.112-.535-1.452-.87-.191-.189-.8-1.108-.8-1.208 0-.052-.1-.2-.22-.328-.27-.29-.118-.308.24-.028.214.169 1.692.757 1.9.757.03 0-.002-.058-.073-.129a.52.52 0 01-.129-.32c0-.107-.048-.193-.107-.193-.06 0-.108-.097-.108-.215 0-.117-.048-.214-.107-.214a.108.108 0 01-.107-.108c0-.06-.108-.272-.239-.471-.196-.299-.325-.374-.727-.427-.892-.118-1.827-.75-2.469-1.67-.144-.206-.31-.408-.371-.45-.211-.143.03-.208.278-.075.233.124 1.37.406 1.674.414.074.002.135-.068.135-.157 0-.088-.049-.16-.108-.16s-.107-.072-.107-.16c0-.09-.049-.161-.108-.161s-.105-.085-.102-.188c.005-.159.031-.151.171.048.09.13.262.346.38.482s.294.379.39.54c.21.355.343.379.343.062 0-.23.142-.741.352-1.265.059-.148.142-.364.186-.482.044-.118.134-.35.2-.514.067-.164.122-.405.123-.535.002-.192.022-.206.106-.075a.807.807 0 01.106.367zM24.94 26.279c-.122.268-.303.363-.303.16 0-.058.049-.106.108-.106s.107-.073.107-.16c0-.09.047-.161.105-.161.064 0 .058.104-.017.267zm24.677 4.657c-.039.062.068.107.255.107.177 0 .446.047.597.104.212.08.276.071.276-.04 0-.247-.988-.396-1.128-.171zm4.95-.011c-.343.133-.021.23.518.156.272-.037.495-.109.495-.16 0-.112-.724-.109-1.014.004zm-19.916 2.709c-.191.19-.163.799.04.877.688.263 1.222-.19.864-.734-.194-.296-.675-.372-.904-.143zm35.03.031c-.192.218-.17.767.036.846.688.263 1.22-.19.863-.734-.2-.306-.675-.365-.899-.112zm.682 2.26c.036-.094.11-.172.162-.172.158 0 .109.5-.064.642-.184.152-.117.339.093.259.176-.068.429.223.354.407-.034.086-.058.068-.063-.05-.01-.228-.224-.253-.224-.027 0 .27.046.323.256.294.17-.024.191.022.137.29-.047.237-.016.346.12.423.175.097.175.107-.002.175-.23.088-.252.478-.027.478.093 0 .164-.102.168-.241.008-.229.012-.23.096-.027.048.118.064.34.035.496-.029.154 0 .314.066.354.171.105.145.274-.043.274-.096 0-.161-.098-.161-.244a.56.56 0 00-.215-.398c-.168-.12-.215-.277-.215-.72 0-.605-.094-.685-.421-.359-.168.167-.218.177-.266.054-.032-.084-.153-.153-.268-.153-.384 0-.55-.124-.546-.413.003-.244.019-.257.113-.095.06.103.156.187.212.187.145 0 .126-.361-.027-.514-.1-.1-.1-.128 0-.128.081 0 .129-.18.129-.484v-.485l.267.175c.245.16.273.16.334.002zm-.386.685c0 .117.048.214.107.214.06 0 .108-.096.108-.214s-.049-.214-.108-.214-.107.096-.107.214zm-35.24.696c0 .196.057.267.215.267.157 0 .214-.071.214-.267 0-.197-.057-.268-.215-.268-.157 0-.214.071-.214.268zm35.24 0c0 .196.057.267.215.267.157 0 .214-.071.214-.267 0-.197-.057-.268-.215-.268-.157 0-.214.071-.214.268zm-52.787.073c-.034.086-.06.06-.065-.065-.005-.112.02-.176.056-.14.036.035.04.128.009.205zm66.695.187c.034.055.013.13-.047.167-.06.037-.11-.008-.11-.1 0-.188.065-.216.157-.067zm-49.578.495c0 .085-.097.154-.215.154-.25 0-.267-.059-.08-.26.154-.168.295-.117.295.106zm35.24-.012c0 .078-.097.167-.215.197-.243.064-.281-.075-.08-.291.151-.164.295-.118.295.094zm.945.489c.017.205-.031.458-.108.563-.131.179-.146.177-.274-.027-.119-.19-.109-.216.08-.216.16 0 .216-.071.216-.268 0-.199-.056-.267-.22-.267-.129 0-.192-.048-.152-.113.15-.244.426-.047.458.328zm-35.9.24c-.029.073-.053.013-.053-.134 0-.148.024-.208.054-.134a.41.41 0 010 .268zm35.24 0c-.029.073-.053.013-.053-.134 0-.148.024-.208.054-.134a.41.41 0 010 .268zm-35.593-.126c.022.025-.05.138-.16.251-.178.182-.202.185-.202.027 0-.099-.048-.18-.107-.18-.06 0-.108-.037-.108-.083 0-.085.502-.098.577-.015zm35.24 0c.022.025-.05.138-.16.251-.178.182-.202.185-.202.027 0-.099-.048-.18-.107-.18-.06 0-.108-.037-.108-.083 0-.085.502-.098.576-.015zm-34.346.423c-.162.231-.163.231-.28.015-.1-.186-.081-.223.126-.256.327-.052.343-.027.154.241zm-1.2.326c.04.122.043.25.008.286-.035.034-.064.007-.064-.062 0-.167-.29-.16-.358.009-.037.089-.058.078-.063-.032-.009-.17.187-.423.328-.423.043 0 .11.1.15.222zm35.261.16c.013.173-.006.242-.042.153a.6.6 0 00-.214-.247c-.17-.1-.078-.32.108-.259.069.023.135.182.148.354zm-34.028-.06c0 .058-.108.105-.241.105-.196-.002-.211-.022-.081-.106.208-.134.322-.134.322 0zm35.3.187c.037.161.084.354.107.428.023.073 0 .133-.051.133-.146 0-.237.336-.127.47.173.208.183.754.016.884-.13.1-.134.173-.027.406.248.543.052 1.247-.288 1.033-.118-.074-.102-.118.081-.215.32-.172.316-.65-.007-.65-.184 0-.208-.03-.108-.129.169-.168.166-.481-.005-.55-.074-.03-.025-.058.108-.063.315-.01.337-.431.026-.512-.242-.063-.281-.2-.08-.282.104-.042.1-.078-.015-.158-.12-.084-.105-.127.081-.226.31-.165.317-.65.008-.65-.122 0-.191-.048-.155-.107.13-.208.373-.103.437.188zm-35.513.561c.137 0 .21-.092.235-.294l.036-.294.059.269a.495.495 0 01-.12.455c-.168.178-.189.177-.41-.014-.127-.11-.227-.315-.223-.455.008-.246.013-.244.117.04.064.175.187.293.306.293zm34.883-.135c-.027.104-.051.044-.053-.132-.003-.177.02-.262.05-.19a.61.61 0 01.003.322zm-36.126-.227c.129.05.143.102.056.206-.064.077-.137.343-.162.59-.048.483-.202.744-.438.744-.097 0-.146-.12-.141-.348.007-.328.014-.334.124-.107.064.133.157.241.207.241.139 0 .109-.367-.043-.527-.107-.114-.107-.152 0-.191.074-.027.134-.19.134-.361 0-.339.007-.345.263-.247zm2.785.202c-.097.315-.133.327-.306.1-.22-.29-.201-.347.104-.33.215.013.255.058.202.23zm32.455-.202c.129.05.143.102.056.206-.064.077-.137.343-.162.59-.048.483-.202.744-.438.744-.097 0-.146-.12-.141-.348.007-.328.014-.334.124-.107.064.133.157.241.207.241.139 0 .109-.367-.043-.527-.107-.114-.107-.152 0-.191.074-.027.134-.19.134-.361 0-.339.007-.345.263-.247zm2.8.13a.846.846 0 00-.054.241c0 .054-.049.099-.108.099s-.107-.073-.107-.161c0-.088-.049-.16-.108-.16s-.107-.044-.107-.096c0-.053.121-.09.27-.08.176.01.25.064.214.157zm-34.98.841c.06.218.081.506.047.642-.043.17-.007.267.114.313.161.062.16.078-.006.2-.108.079-.155.204-.114.309.089.23.263.224.313-.012.03-.15.052-.138.107.06.045.165.016.267-.087.307-.296.113-.474-.18-.474-.781 0-.317-.048-.576-.108-.576-.065 0-.056-.084.023-.21.162-.258.042-.404-.18-.22-.14.115-.164.094-.164-.146 0-.207.055-.28.21-.28.15 0 .24.111.319.395zm35.197-.283c.037.06.078.358.088.66.013.338.074.568.159.596.1.034.089.082-.047.18-.11.08-.157.205-.116.31.099.257.287.216.3-.064.01-.23.014-.229.091.026.1.334-.011.472-.306.379-.191-.061-.225-.157-.225-.632 0-.308-.06-.624-.135-.702-.107-.113-.107-.152 0-.19.147-.054.188-.353.049-.353-.048 0-.144.058-.215.128-.1.1-.13.065-.13-.16 0-.215.054-.29.21-.29.114 0 .239.05.277.112zm-36.692.532c.038.252.005.413-.1.493-.13.101-.132.172-.013.459.077.186.11.369.073.406-.038.038-.069-.012-.069-.11 0-.107-.086-.179-.215-.179-.19 0-.2-.026-.081-.224.118-.195.104-.245-.107-.388-.235-.159-.339-.565-.144-.565.054 0 .072.096.041.214-.045.174-.003.214.225.214.214 0 .281-.054.281-.224a.285.285 0 00-.213-.28c-.253-.066-.17-.273.09-.223.11.021.198.174.232.407zm34.625.106c-.03.118-.075.214-.097.214-.023 0-.041-.096-.041-.214s.044-.214.097-.214c.054 0 .072.096.041.214zm-36.667.649c0 .136-.074.207-.215.207-.119 0-.215-.048-.215-.107s.048-.107.107-.107c.06 0 .108-.075.108-.167 0-.091.048-.137.107-.1.06.036.108.16.108.274zm35.24 0c0 .136-.074.207-.215.207-.119 0-.215-.048-.215-.107s.048-.107.107-.107c.06 0 .108-.075.108-.167 0-.091.048-.137.107-.1.06.036.108.16.108.274zm-35.49.513c.184-.153.2.13.017.312-.095.095-.159.08-.265-.06-.175-.23-.191-.43-.02-.26.091.092.164.094.268.008zm1.817.409c.085.032.226 0 .314-.073.196-.162.21-.002.022.254-.13.178-.15.177-.376-.019-.135-.116-.232-.317-.224-.46l.015-.256.047.247c.027.136.117.274.202.307zm33.528-.337c.16.05.157.071-.023.203-.173.126-.22.122-.336-.03-.182-.238-.174-.34.02-.28l.339.107zm1.508.236c-.027.104-.051.045-.053-.132-.003-.177.02-.262.05-.19a.61.61 0 01.003.322zm-32.383.59c-.104.195-.353.063-.353-.187 0-.256.008-.26.198-.08.109.103.179.224.155.268zm35.24 0c-.104.195-.353.063-.353-.187 0-.256.009-.26.198-.08.109.103.179.224.155.268zm-39.805.09c.023.19.005.22-.07.11a.242.242 0 00-.273-.084c-.107.04-.172.009-.172-.083 0-.156.194-.274.376-.229.06.014.122.143.139.285zm35.232 0c.014.142-.002.199-.035.125a.244.244 0 00-.204-.134.231.231 0 00-.197.134c-.03.074-.058.03-.063-.098-.015-.422.46-.449.5-.028zm-32.878.285c.082.322.068.438-.07.583-.11.115-.227.149-.319.092-.11-.068-.091-.106.084-.162.149-.047.23-.16.23-.325s-.081-.279-.23-.326c-.18-.057-.197-.092-.08-.166.238-.15.278-.12.385.304zm35.264.269c-.121.42-.224.522-.41.408-.115-.071-.097-.107.081-.164.149-.047.23-.16.23-.325s-.081-.279-.23-.326c-.176-.056-.195-.093-.083-.162.09-.056.215-.028.327.073.142.128.16.234.085.496zm-35.84-.192c.034.087.015.186-.042.22-.056.035-.102-.035-.102-.157 0-.258.06-.284.145-.063zm35.23.11c-.029.148-.07.268-.093.268-.023 0-.041-.12-.041-.267 0-.147.041-.268.092-.268s.07.12.041.268zm2.98-.133a.664.664 0 01-.098.285c-.081.128-.122.125-.267-.02-.231-.23-.215-.32.044-.238.123.039.215.019.215-.047 0-.063.024-.114.054-.114s.053.06.052.134zm-40.234.042c.135.051.146.088.043.151-.074.046-.148.309-.164.584-.032.524-.18.802-.43.802-.097 0-.145-.12-.141-.348.006-.316.016-.326.104-.107.053.133.147.24.208.24.148 0 .143-.395-.006-.487-.084-.051-.084-.104 0-.188.064-.064.117-.251.117-.416 0-.327.006-.332.269-.231zm4.718-.004c.094.036.17.132.17.214 0 .19-.083.19-.276-.004-.248-.246-.206-.33.106-.21zm30.522.004c.113.043.136.094.063.14-.064.038-.14.303-.168.587-.055.545-.201.81-.446.81-.097 0-.145-.12-.141-.348.006-.316.016-.326.104-.107.053.133.147.24.208.24.158 0 .138-.4-.023-.459-.108-.039-.108-.077 0-.19.074-.078.134-.277.134-.442 0-.327.006-.332.269-.231zm-30.05.85c.027.172.013.18-.083.045-.1-.14-.136-.134-.275.047-.156.204-.159.203-.159-.018 0-.38.457-.446.516-.074zm35.21-.054c.038.122.041.25.006.285-.035.035-.063-.017-.063-.115 0-.233-.175-.228-.314.009-.099.169-.11.164-.113-.045-.002-.205.11-.322.34-.348.04-.005.104.091.143.214zm-37.768.448c0 .052-.076.019-.169-.074-.093-.093-.226-.169-.295-.17-.075 0-.06-.044.034-.105.159-.102.43.119.43.349zm35.198.28c-.07.447-.11.487-.344.357-.17-.095-.166-.11.046-.178.314-.1.317-.553.003-.652-.18-.057-.197-.093-.08-.166.23-.145.442.214.375.639zm-35.816-.148c-.029.148-.07.268-.093.268-.023 0-.041-.12-.041-.268 0-.147.041-.267.092-.267s.07.12.041.267zm35.267 0c0 .148-.036.268-.08.268-.045 0-.081-.12-.081-.268 0-.147.036-.267.08-.267.045 0 .08.12.08.267zm-31.993.047c-.03.114.016.307.101.428.096.136.11.221.039.221-.064 0-.16.109-.214.241-.08.196-.099.148-.104-.261-.004-.276-.06-.535-.126-.576-.083-.05-.075-.1.027-.165.236-.15.336-.11.277.112zm35.24 0c-.03.114.016.307.101.428.096.136.11.221.039.221-.065 0-.16.109-.214.241-.08.196-.099.148-.104-.261-.004-.276-.056-.533-.116-.57-.147-.09-.027-.266.181-.266.113 0 .15.068.113.207zm-37.985.333c-.057.156-.044.414.037.685.11.373.104.46-.047.615-.112.115-.23.149-.322.093-.11-.069-.091-.107.084-.162.154-.049.23-.161.23-.34 0-.217-.047-.262-.242-.234-.179.026-.235.098-.217.275.014.132-.022.24-.08.24s-.106-.12-.106-.267c0-.147.036-.268.081-.268.045 0 .146-.102.225-.228.112-.178.114-.246.012-.31-.092-.056-.062-.103.097-.153.126-.04.23-.125.23-.19s.025-.093.055-.062c.031.03.015.168-.036.306zm-3.027.215c0 .137-.074.208-.215.208-.25 0-.26-.037-.086-.315.152-.242.301-.188.301.108zm35.24-.06c0 .197-.057.268-.215.268-.251 0-.26-.037-.081-.322.18-.29.296-.268.296.055zm3.084.563c.082.321.068.437-.07.582-.11.115-.227.15-.319.093-.11-.069-.091-.107.084-.162.304-.096.313-.553.013-.648-.228-.072-.193-.267.048-.267.078 0 .188.18.244.402zm-32.172.145c-.03.112-.124.203-.21.203-.088 0-.13-.06-.096-.134a4.39 4.39 0 00.132-.33c.09-.259.248-.021.174.261zm35.255.033c-.037.093-.137.17-.225.17s-.13-.06-.095-.134c.034-.074.093-.224.132-.334.06-.171.082-.176.161-.035.05.09.062.24.026.333zm-41.629.125c-.108.13-.153.134-.223.023-.055-.087-.02-.19.097-.276.229-.171.322.017.126.253zm37.96-.116c.028.147.01.268-.042.268-.05 0-.092-.12-.092-.268 0-.147.018-.268.04-.268.023 0 .065.12.094.268zm-2.605-.067c0 .052-.073.154-.162.228-.134.11-.16.095-.16-.094 0-.131.068-.228.16-.228.09 0 .162.043.162.094zm-28.76.79c-.116.2-.356.061-.356-.206 0-.282.003-.284.2-.08.111.113.181.241.156.286zm35.163-.002c-.21.14-.28.088-.28-.204 0-.282.004-.283.2-.08.136.14.161.23.08.284zm-41.923-.177c.103.27.074.438-.046.259-.094-.139-.13-.133-.267.047-.143.186-.16.188-.16.022 0-.184.207-.485.338-.493.038-.002.099.072.134.165zm35.262.103c.038.15.039.303.002.34-.037.036-.067-.015-.067-.113s-.072-.178-.16-.178c-.09 0-.162.08-.162.178 0 .098-.032.147-.072.107-.085-.084.176-.606.303-.606.048 0 .118.122.156.272zm-31.922.266c-.032.052-.134.066-.226.03-.13-.049-.136-.081-.028-.148.163-.1.339-.019.254.118zm35.403.372c0 .328-.236.605-.417.491-.117-.073-.1-.109.08-.166.149-.047.23-.16.23-.325s-.081-.279-.23-.326c-.18-.057-.197-.092-.08-.166.181-.114.417.163.417.492zm-35.816 0c-.02.348-.176.348-.176 0 0-.148.043-.268.096-.268.053 0 .089.12.08.268zm3.928.026c-.055.283-.092.294-.298.088-.22-.22-.19-.329.095-.329.2 0 .24.048.203.241zm31.27-.026c.028.147.01.267-.042.267-.05 0-.092-.12-.092-.267 0-.148.018-.268.04-.268.023 0 .065.12.094.268zm3.972-.054c-.106.301-.145.323-.3.17-.222-.223-.19-.33.102-.33.18 0 .238.047.198.16zm-42.265-.013c.114.072.106.105-.04.16-.125.048-.162.143-.12.306.035.13.034.349 0 .486l-.063.248-.154-.297c-.102-.195-.116-.31-.041-.335.062-.02.114-.178.114-.35 0-.325.063-.37.304-.218zm35.24 0c.114.072.106.105-.038.16-.13.05-.163.143-.117.327.036.142.02.37-.035.508-.098.243-.101.244-.108.017-.003-.127-.067-.26-.14-.294-.108-.05-.108-.075 0-.125.073-.034.134-.203.134-.375 0-.325.063-.37.304-.218zm-31.732.551c-.032.052-.134.066-.226.031-.13-.05-.136-.082-.028-.148.163-.1.339-.02.254.117zm3.814.305c-.001.146-.017.15-.1.02-.08-.127-.126-.13-.266-.013-.21.173-.238-.035-.035-.255.16-.173.404-.022.401.248zm35.242-.005c0 .129-.03.139-.127.043-.092-.092-.164-.095-.268-.009-.19.156-.196-.074-.008-.277.158-.171.403-.024.403.242zm-38.91.548l-.015.273-.044-.283c-.028-.18-.13-.307-.28-.348-.197-.054-.209-.081-.074-.17.21-.136.436.151.414.528zm35.225.14c-.056.22-.166.401-.244.401-.241 0-.276-.195-.048-.267.14-.045.216-.162.216-.336 0-.217-.046-.262-.241-.234-.173.024-.24.103-.234.275.005.133-.031.24-.08.24-.182 0-.081-.463.143-.656.221-.191.24-.192.411-.013.145.152.16.264.077.59zm-39.288-.241c.064 0 .087.048.05.107-.152.247-.375.102-.368-.241.006-.316.015-.326.104-.107.053.132.15.24.214.24zm35.24 0c.064 0 .087.048.05.107-.152.247-.375.102-.368-.241.006-.316.015-.326.104-.107.053.132.15.24.214.24zm-31.767.164c-.085.221-.145.195-.145-.063 0-.122.046-.192.102-.158.057.035.076.134.043.22zm4.315.04c-.052.238-.021.34.126.426.11.064.135.114.057.116-.076.002-.181.112-.235.244-.08.196-.098.148-.104-.261-.004-.276-.055-.532-.114-.569-.185-.113-.118-.267.116-.267.19 0 .213.045.154.312zm35.245-.032c-.05.201-.016.32.123.425.121.091.142.147.055.149-.076.002-.181.112-.235.244-.08.196-.098.148-.104-.261-.004-.276-.056-.533-.116-.57-.146-.09-.027-.266.18-.266.127 0 .15.068.097.279zm-43.143.476c0 .137-.074.208-.215.208-.118 0-.215-.048-.215-.107s.048-.107.107-.107c.06 0 .108-.075.108-.167 0-.092.048-.137.107-.1.06.036.108.16.108.273zm35.24 0c0 .137-.074.208-.215.208-.118 0-.215-.048-.215-.107s.048-.107.107-.107c.06 0 .108-.075.108-.167 0-.092.048-.137.107-.1.06.036.108.16.108.273zm-31.158-.113c0 .134-.114.134-.322 0-.13-.084-.115-.104.08-.105.134-.001.242.046.242.105zm.06.997c-.08.398-.084.547-.025.983.024.177.023.213-.003.08-.066-.344-.418-.31-.551.054-.104.284-.109.285-.117.04-.004-.14.095-.345.221-.454.19-.163.206-.226.094-.36-.113-.136-.098-.162.093-.162.172 0 .228-.067.228-.268 0-.367-.498-.39-.568-.027-.04.207-.05.2-.062-.053-.01-.2.039-.295.15-.295a.27.27 0 00.229-.165c.119-.31.391.237.312.627zm35.284-.338c.002.039-.093.045-.211.014-.21-.054-.283-.248-.145-.386.067-.067.35.227.356.372zm-31.143.23c-.057.056-.191.065-.299.019-.183-.08-.183-.087-.007-.13.105-.024.191-.148.195-.277.006-.223.011-.222.11.026.067.166.067.296.001.362zm35.274-.018c-.035.056.012.216.103.355.15.228.15.26 0 .317-.242.092-.35-.012-.283-.27.034-.13-.004-.268-.09-.329-.116-.08-.12-.116-.016-.158.074-.03.137-.159.14-.286.008-.226.01-.226.109.018.055.138.072.297.037.353zm-43.665-.155c0 .178-.164.26-.366.183-.267-.102-.2-.31.098-.31.147 0 .268.057.268.127zm35.24-.015c0 .236-.237.363-.39.21-.219-.218-.179-.322.122-.322.147 0 .268.05.268.112zm3.617.29c-.03.073-.054.013-.054-.135 0-.147.024-.207.054-.133.03.073.03.194 0 .267zm.577.288c-.083.153-.085.282-.007.427.06.114.104.319.096.455-.014.244-.015.244-.06.012a.427.427 0 00-.254-.302c-.236-.074-.274-.225-.074-.292.105-.035.102-.085-.013-.223-.13-.157-.12-.178.08-.178.143 0 .232-.07.237-.188.005-.103.032-.13.06-.06.03.071 0 .228-.065.349zm-30.829.253c-.174.174-.429.002-.364-.245.056-.214.07-.216.263-.041.13.117.166.22.101.286zm-8.85-.234c.067.066.094.19.06.276-.049.128-.077.131-.154.014-.075-.114-.127-.1-.254.065-.142.186-.159.188-.159.022 0-.178.204-.485.328-.493.032-.003.113.05.18.116zm35.24 0c.067.066.094.19.06.276-.048.127-.076.13-.148.015-.069-.112-.115-.114-.219-.012-.102.103-.09.174.054.334.17.188.171.209.008.271-.125.048-.158.143-.112.326.035.142.02.37-.036.507-.098.244-.1.245-.107.018-.004-.127-.067-.254-.141-.28-.108-.04-.108-.078 0-.192.074-.078.134-.35.134-.606s.06-.534.135-.617c.165-.187.22-.193.373-.04zm-26.269.736c-.11.312-.153.332-.299.14-.203-.267-.192-.3.101-.3.18 0 .238.047.198.16zm35.24.027c-.057.22-.146.236-.324.059-.189-.188-.16-.247.123-.247.186 0 .238.049.202.188zm-44.349-.038c.033.053-.01.122-.094.154-.1.039-.152.212-.148.499.003.241-.024.469-.06.505-.037.036-.067-.038-.067-.166 0-.127-.048-.232-.107-.232-.06 0-.108-.072-.108-.16 0-.089.049-.16.108-.16s.107-.121.107-.268c0-.262.243-.376.37-.172zm39.24.252c-.03.073-.054.013-.054-.134 0-.147.024-.207.054-.134a.41.41 0 010 .268zm-34.667.294c0 .134-.114.134-.322 0-.13-.084-.115-.104.08-.105.134-.001.242.046.242.105zm4.792.166c.038.15.039.302.002.339-.036.036-.066-.014-.066-.112 0-.21-.12-.23-.301-.05-.1.1-.13.093-.13-.032 0-.171.203-.418.343-.418.046 0 .114.123.152.273zm30.448-.166c0 .06-.07.107-.154.107-.086 0-.185-.048-.222-.107-.036-.059.033-.107.155-.107s.221.048.221.107zm4.776.091c.035.109.084.403.109.654.025.25.123.541.218.646.094.104.185.416.202.693.017.291.094.544.183.6.084.053.12.097.081.098a.96.96 0 00-.242.067c-.13.05-.17-.007-.17-.248a.92.92 0 00-.214-.542c-.149-.159-.215-.378-.215-.707 0-.277-.057-.504-.135-.54-.107-.05-.107-.075 0-.125.147-.068.188-.473.049-.473-.048 0-.144.058-.215.129-.1.1-.13.093-.13-.032 0-.168.202-.418.338-.418.043 0 .106.09.141.198zm-45.03.662c.07.002.041.052-.063.113-.13.075-.169.186-.125.36.07.28-.054.41-.267.28-.099-.062-.105-.11-.021-.16.065-.04.122-.324.127-.63.008-.5.02-.526.116-.26.06.161.165.295.233.297zm5.152-.078c-.027.047-.107.037-.178-.021-.15-.125-.307-.04-.476.256-.113.2-.122.2-.125.015-.002-.11.105-.31.237-.447.224-.232.251-.237.416-.069.097.1.154.219.126.266zm30.013 0c.178.103.095.289-.128.289-.11 0-.15-.118-.142-.402.007-.233.035-.311.066-.187a.54.54 0 00.204.3zm5.214.264c-.045.386-.275.56-.476.36-.09-.09-.061-.121.115-.121.179 0 .236-.064.236-.262 0-.305-.124-.409-.375-.313-.11.043-.16.146-.127.269.029.11.009.199-.045.199-.053 0-.097-.12-.097-.268 0-.157.061-.268.15-.268.082 0 .18-.079.217-.176.062-.16.085-.158.256.021.127.133.174.316.146.56zm-30.453-.084c-.032.122.034.327.154.48.124.156.222.469.24.759.016.283.094.534.182.59.084.053.12.097.081.098a.96.96 0 00-.242.067c-.13.05-.17-.007-.17-.247 0-.17-.06-.375-.134-.453-.107-.113-.107-.151 0-.19.161-.06.182-.46.024-.46-.061 0-.155.108-.209.24-.077.192-.098.125-.104-.32-.003-.31-.055-.562-.114-.562a.108.108 0 01-.107-.107c0-.06.102-.107.227-.107.174 0 .215.05.172.212zm-4.855.315c-.075.233-.32.298-.433.115-.036-.059.034-.107.155-.107.135 0 .221-.07.221-.179 0-.098.029-.15.064-.115.035.035.032.164-.007.286zm29.99.267a.173.173 0 01-.223.104c-.129-.049-.135-.1-.034-.263.145-.231.358-.1.258.159zm-29.943.763c.002.18-.05.38-.116.447-.09.088-.082.206.026.45.146.328.148.329 1.016.329.479 0 1.603.032 2.499.07 1.61.07 1.628.068 1.628-.157 0-.165.048-.21.172-.162a.25.25 0 00.278-.083c.08-.112.093-.089.053.091-.07.319.03.365.976.458.483.047.842.137.902.225.154.226.032 1.04-.192 1.287-.48.53-2.36 1.238-4.208 1.586-3.793.714-9.316-.08-10.793-1.552-.248-.247-.295-.384-.295-.868 0-.315.012-.576.027-.58.015-.003.41-.045.878-.094.581-.061.893-.144.98-.262.16-.22.334-.22.457-.001.086.153.356.163 2.53.093 1.605-.052 2.434-.118 2.434-.194 0-.073.046-.068.129.014.156.156.515.171.515.022 0-.059-.096-.107-.215-.107-.237 0-.292-.168-.08-.245.107-.039.107-.094-.001-.276-.12-.202-.11-.229.08-.229.16 0 .216-.07.216-.267s-.057-.268-.215-.268c-.187 0-.198-.028-.087-.206.12-.191.14-.193.266-.027.075.099.139.327.14.506zm35.24-.03a1.07 1.07 0 01-.118.49c-.096.152-.082.256.066.48.177.269.237.286 1.018.286.456 0 1.563.032 2.459.07l1.628.07.002-.31c.001-.222.029-.269.097-.162.055.087.171.12.279.079.136-.052.167-.028.12.095-.077.198.315.372.839.372.196 0 .507.03.691.067.328.065.336.082.336.657 0 .712-.195.927-1.343 1.478-1.528.733-3.85 1.154-6.339 1.15-2.804-.006-5.094-.45-6.854-1.33-.8-.4-.935-.588-.935-1.291 0-.343.036-.626.08-.629.853-.05 1.703-.219 1.806-.36.161-.219.359-.218.444.004.06.155.279.165 2.064.1 1.1-.04 2.35-.076 2.777-.082.429-.006.78-.051.78-.101 0-.05-.097-.091-.216-.091-.237 0-.292-.168-.08-.245.107-.039.107-.094-.001-.276-.12-.202-.11-.229.08-.229.16 0 .216-.07.216-.267s-.057-.268-.215-.268c-.187 0-.198-.028-.087-.206.12-.191.14-.193.266-.027a.935.935 0 01.14.476zm4.785-.564c-.079.126.023.321.167.321.056 0 .101-.096.101-.214 0-.226-.156-.288-.268-.107zm-45.505.27c.137-.084.143.05.011.258-.08.128-.127.13-.267.014-.093-.077-.17-.212-.17-.3 0-.129.032-.135.157-.032.086.071.207.099.269.06zm35.352.125c0 .203-.21.278-.38.136-.227-.186-.194-.263.111-.263.148 0 .269.057.269.127zm-30.55.274c-.029.074-.053.014-.053-.134 0-.147.024-.207.054-.133.03.073.03.194 0 .267zm35.243-.006c-.034.085-.06.06-.065-.065-.004-.113.021-.176.057-.14.035.035.04.127.008.205zm-40.213.363c.091.238.081.282-.047.202-.062-.038-.183-.01-.269.06-.2.167-.218-.05-.022-.271.176-.2.258-.198.338.009zm35.24 0c.1.261.076.442-.036.266-.08-.128-.126-.13-.267-.014-.21.173-.237-.033-.035-.261.176-.2.258-.198.338.009zM82.085 58.1c-.027.102-.05.018-.05-.188s.023-.29.05-.187a.874.874 0 010 .374zm-59.055.173c-.076.076-.108-.006-.104-.26.007-.346.013-.353.11-.11.07.172.067.297-.006.37zm1.918 3.386c-.052.095-.083-.147-.076-.589l.012-.75.075.59c.042.323.037.66-.011.749zm55.207-.294c-.024.191-.044.034-.044-.348 0-.383.02-.54.043-.348.024.191.024.504 0 .696zM27.29 64.31c-.027.102-.05.018-.05-.188s.023-.29.05-.187a.873.873 0 010 .374zm50.497-.11c-.028.105-.052.045-.054-.131-.002-.177.02-.262.05-.19a.62.62 0 01.004.322zm-57.154.63c-.036.035-.128.039-.206.008-.086-.034-.06-.06.065-.065.113-.005.177.02.141.056zm64.034 0c-.036.035-.129.039-.206.008-.086-.034-.06-.06.065-.065.113-.005.176.02.14.056zm-7.099.39c-.03.073-.054.013-.054-.134 0-.147.025-.208.055-.134.03.073.03.194 0 .267zm-56.505-.177c-.036.036-.129.04-.206.009-.086-.034-.06-.06.065-.065.113-.004.176.02.14.056zm6.514.096c.034.089.015.16-.042.16s-.104-.072-.104-.16c0-.088.019-.16.042-.16.023 0 .07.072.104.16zm56.716-.09a.415.415 0 01-.269 0c-.074-.03-.013-.053.135-.053.147 0 .208.024.134.053zm-9.518 2.74c-.03.073-.054.013-.054-.134 0-.147.024-.207.054-.134a.41.41 0 010 .268zm-44.48.107c-.03.073-.054.013-.054-.134 0-.147.024-.207.054-.134a.41.41 0 010 .268zm44.35.287c.035.055.013.13-.047.167-.06.037-.109-.008-.109-.1 0-.188.065-.216.157-.067zm7.55.714c-.035.036-.128.04-.205.009-.086-.035-.06-.06.065-.065.113-.005.176.02.14.056zm-10.643 1.247c-.03.074-.054.013-.054-.134 0-.147.024-.207.054-.134a.41.41 0 010 .268zm-38.031-.007c-.035.086-.06.06-.065-.064-.005-.113.02-.176.056-.14.036.035.04.127.009.204zm.215.643c-.035.085-.06.06-.065-.065-.005-.113.02-.176.056-.14.036.035.04.127.009.205zm37.603 0c-.034.085-.06.06-.065-.065-.004-.113.021-.176.057-.14.035.035.04.127.008.205zm-37.247.354c0 .088.038.16.084.16.047 0 .167.14.267.309.1.17.316.453.48.631.378.413.586.678.75.961.122.211.098.232-.408.34-.977.208-.958.222-.958-.682 0-.438-.048-.826-.108-.862-.059-.037-.107-.208-.107-.381 0-.174-.048-.315-.108-.315-.059 0-.107-.073-.107-.16 0-.09.048-.161.108-.161.059 0 .107.072.107.16zm37.02.212c-.07.205-.162.406-.202.446-.04.04-.074.475-.074.966v.892h-.35c-.535-.002-1.154-.205-1.154-.38 0-.085.038-.155.084-.155.047 0 .166-.133.265-.295.1-.162.316-.446.48-.632.493-.558.675-.786.675-.846 0-.082.257-.36.337-.364.037-.003.01.163-.061.368zm-34.012.216c0 .089-.048.16-.107.16-.06 0-.108-.071-.108-.16 0-.088.049-.16.108-.16s.107.072.107.16zm31.016.074c-.034.085-.06.06-.065-.065-.004-.113.02-.176.057-.14.035.035.04.128.008.205zm-.16.644c-.1.1-.128.071-.128-.129s.029-.228.129-.128.1.157 0 .257zm-30.71-.079c.032.087.014.186-.043.22-.056.035-.103-.035-.103-.157 0-.258.06-.284.145-.063zm-11.29.342a.615.615 0 01-.323.003c-.104-.027-.045-.05.132-.053.178-.002.263.02.19.05zm34.351.24c5.372.49 10.915 1.427 14.934 2.522.325.088.978.26 1.45.383 2.327.6 5.707 1.73 9.025 3.014.296.115.707.273.914.351 2.342.891 6.716 3.071 9.025 4.497.693.429 1.342.858 1.396.923.03.035.172.126.316.202.144.075.313.18.376.232.063.052.55.417 1.081.81 1.427 1.058 1.53 1.187 1.782 2.236.101.42.102.662.007 1.038-.068.27-.124.635-.124.811 0 .177-.048.351-.107.387-.059.037-.108.185-.108.33 0 .144-.042.346-.094.448a8.28 8.28 0 00-.228.507 8.771 8.771 0 01-.227.507.93.93 0 00-.095.348c0 .09-.049.162-.108.162s-.107.06-.107.134c.001.13-1.493 3.185-1.61 3.292-.032.03-.178.294-.324.589-.146.294-.29.559-.321.588a2.48 2.48 0 00-.216.375 2.607 2.607 0 01-.215.375 2.27 2.27 0 00-.198.309 1500.396 1500.396 0 00-.678 1.202c-.08.14-.169.28-.198.309-.107.105-.445.699-.503.883-.033.103-.103.187-.155.187-.052 0-.095.049-.095.109 0 .149-.464.852-.564.853-.044.001-.08-.131-.082-.293 0-.162-.075-.487-.165-.722a22.11 22.11 0 01-.226-.616c-.034-.103-.105-.187-.157-.187-.052 0-.095-.048-.095-.106 0-.297-1.362-1.596-2.358-2.25a10.801 10.801 0 01-.475-.333 6.833 6.833 0 00-.659-.407 57.117 57.117 0 01-1.235-.709c-1.824-1.074-3.447-1.845-6.232-2.96-11.83-4.742-28.994-6.326-44.318-4.09-5.581.814-11.158 2.21-15.4 3.853-2.137.828-5.654 2.499-7.162 3.403l-1.051.628c-.81.48-1.973 1.348-2.546 1.9-.474.457-1.077 1.318-1.077 1.539 0 .089-.048.191-.107.228-.06.036-.108.228-.108.425 0 .198-.029.435-.064.527-.055.143-.085.145-.215.016-.083-.083-.15-.202-.15-.265s-.049-.115-.108-.115c-.06 0-.107-.072-.107-.16 0-.089-.043-.161-.095-.161-.053 0-.122-.084-.155-.187-.058-.184-.396-.777-.503-.883-.106-.106-.444-.7-.502-.883-.033-.104-.094-.188-.135-.188-.04 0-.141-.168-.222-.374-.081-.207-.178-.375-.215-.375-.037 0-.134-.169-.215-.375-.08-.206-.175-.375-.209-.375-.033 0-.129-.156-.213-.347-.083-.192-.18-.373-.215-.402-.035-.03-.184-.294-.33-.589-.146-.294-.292-.56-.324-.588-.032-.03-.364-.68-.738-1.446l-.883-1.803c-.112-.226-.204-.5-.204-.61 0-.108-.048-.227-.107-.263-.06-.036-.107-.181-.107-.321s-.043-.282-.096-.314c-.23-.142-.438-2.784-.234-2.986a.472.472 0 00.115-.292c0-.194.406-.649.95-1.065.193-.147.44-.34.55-.428.11-.088.305-.233.434-.321.13-.089.468-.33.753-.536 1.835-1.33 6.453-3.886 8.767-4.853.348-.146 1.043-.44 1.546-.655 6.374-2.725 14.179-4.891 21.38-5.933 5.396-.78 8.382-.974 14.29-.925 3.515.029 5.122.088 6.983.259zm19.205-.237a.883.883 0 01-.376 0c-.104-.027-.019-.049.188-.049s.291.022.188.05zm-42.068.376c-.1.1-.129.071-.129-.129s.029-.228.13-.128c.1.1.1.157 0 .257zm30.325-.243c.035.055.013.13-.047.167-.06.037-.11-.008-.11-.1 0-.188.065-.215.157-.067zm-26.174 16.81a44.278 44.278 0 0021.71.044c1.252-.312 1.198-.314 4.093.132 2.074.32 3.747.636 3.839.728.104.103 0 .16-1.085.604-6.118 2.5-13.342 3.707-19.944 3.332-5.656-.322-10.471-1.38-15.443-3.394-1.057-.428-1.088-.45-.816-.574.239-.108 2.871-.579 5.354-.957 1.01-.154 1.408-.14 2.292.084zm-36.44 3.598c.133.232.52.975.86 1.652.34.677.643 1.255.676 1.285.032.03.13.198.219.374.088.177.185.346.215.375.03.03.154.246.276.482.29.555.516.95.584 1.017.03.03.126.198.214.375.089.176.185.345.215.374.03.03.107.15.171.268.28.509.424.753.474.803.106.106.444.7.502.883.033.103.103.187.155.187.052 0 .095.052.095.115s.145.325.322.581c.177.257.322.519.322.582 0 .063.049.114.108.114s.107.072.107.161c0 .088.049.16.108.16s.107.066.107.147c0 .221.659.894 1.002 1.024.388.147 1.192.145 1.733-.005.911-.252 1.43-.917 1.578-2.022.177-1.323.403-1.822 1.015-2.24.303-.206.462-.24.918-.197.456.044.61.116.886.419.184.202.396.472.47.602.155.273.176.907.039 1.176-.052.103-.151.307-.22.455-.153.332-.92 1.154-1.352 1.45-.36.245-.841.428-2.254.855-1.201.363-2.444.885-3.01 1.264-.235.158-.52.347-.63.42-.263.171-1.241 1.038-1.457 1.291l-.365.428c-.266.313-.664 1.206-.772 1.731-.151.741-.035 2.448.177 2.578.051.032.093.152.093.267 0 .115.043.293.096.395.053.102.207.427.343.721l.286.614c.057.118-.294-.029-.755-.315-.461-.287-1.08-.906-1.343-1.343-.097-.162-.215-.294-.261-.294-.047 0-.085-.072-.085-.161 0-.088-.048-.16-.107-.16-.06 0-.108-.069-.108-.152 0-.083-.036-.168-.08-.187-.132-.059-.564-.95-.564-1.164 0-.109-.043-.224-.096-.257-.338-.208-.532-5.385-.21-5.584.05-.03.091-.243.091-.471 0-.229.048-.445.107-.482.06-.036.108-.16.108-.275 0-.115.048-.305.107-.422l.215-.425c.154-.304.133-.612-.046-.68-.397-.152-1.96.693-2.627 1.421-.486.529-.657.755-.657.864a.107.107 0 01-.108.106c-.059 0-.107.073-.107.162 0 .089-.049.258-.108.375l-.215.425a1.124 1.124 0 00-.107.422c0 .115-.048.239-.108.275-.059.037-.107.215-.107.396 0 .181-.055.626-.122.988-.084.456-.09.847-.017 1.265.057.333.065.668.016.745-.066.104-.089.091-.09-.048-.001-.103-.038-.188-.082-.189-.097-.001-.35-.519-.35-.716 0-.077-.037-.139-.084-.139-.046 0-.146-.229-.223-.509a8.182 8.182 0 00-.23-.722c-.095-.224-.153-.468-.345-1.445-.156-.795-.148-4.602.012-5.407.07-.353.154-.823.188-1.044.033-.221.104-.429.157-.461.052-.033.096-.154.096-.269 0-.115.042-.293.095-.395.052-.102.143-.306.201-.453.434-1.086 1.428-2.809 2.052-3.554l.368-.443c.618-.75.786-.92.877-.891.056.017.211.22.345.452zm96.099.545c.941 1.086 2.187 3.308 2.574 4.586.071.236.167.525.214.643.047.117.113.382.146.588.033.207.118.688.189 1.071.23 1.247.125 5.251-.142 5.415-.051.032-.093.22-.093.419 0 .2-.048.392-.107.429-.059.036-.108.184-.108.329 0 .144-.042.346-.095.448a7.172 7.172 0 00-.201.454c-.206.519-.604 1.297-.691 1.35-.048.03-.087-.632-.087-1.47 0-1.691-.058-1.967-.706-3.359-.51-1.094-2.18-2.476-3.251-2.689-.33-.066-.34-.056-.34.299 0 .201.04.412.088.468.049.056.151.318.227.583.076.265.178.578.225.696.19.466.254 1.259.25 3.105-.003 1.941-.095 3.007-.267 3.113-.052.032-.094.175-.094.319 0 .143-.048.261-.107.261-.06 0-.108.068-.108.15 0 .197-.418.975-.666 1.24-.106.114-.193.232-.193.264 0 .093-.345.495-.897 1.045-.513.512-1.322 1.014-1.442.895-.033-.034-.004-.061.065-.061s.125-.068.125-.151c0-.129.148-.47.55-1.266.052-.102.095-.304.095-.449 0-.144.048-.292.107-.329.134-.082.144-2.554.012-2.811a43.117 43.117 0 01-.34-.695c-.133-.279-.284-.508-.334-.508-.05 0-.09-.052-.09-.114 0-.108-.745-.87-1.303-1.331-1.05-.869-2.7-1.655-4.606-2.194a12.272 12.272 0 01-1.315-.453c-.492-.218-1.586-1.229-1.586-1.466 0-.064-.048-.116-.108-.116-.059 0-.107-.094-.107-.208 0-.114-.048-.237-.107-.274-.153-.094-.134-1.082.026-1.36.184-.318.534-.675.808-.82.626-.335 1.673.053 1.975.732.08.178.18.324.225.324.045 0 .081.13.081.288 0 .826.356 2.042.72 2.456.484.553 1.833.848 2.647.58.393-.129 1.146-.884 1.146-1.149 0-.077.048-.141.107-.141.06 0 .108-.072.108-.16 0-.089.048-.161.107-.161.06 0 .108-.072.108-.161 0-.088.042-.16.094-.16.053 0 .122-.085.155-.187.058-.184.396-.778.503-.884.03-.029.114-.162.188-.294l.268-.482c.074-.132.159-.265.188-.294.03-.03.119-.169.198-.31a996.856 996.856 0 00.679-1.201c.079-.14.168-.28.198-.31a4.64 4.64 0 00.295-.508l.484-.91c.133-.25.266-.479.297-.508.03-.03.252-.439.494-.91.602-1.173.944-1.81 1.008-1.873.03-.03.127-.198.215-.375.298-.595.316-.588 1.302.552zm-85.15 3.401c.084.084.153.205.153.268a.11.11 0 00.108.114c.059 0 .107.073.107.161 0 .088.048.16.107.16.06 0 .108.073.108.161 0 .089.048.16.107.16.06 0 .108.073.108.161 0 .089.048.161.107.161.06 0 .108.068.108.152 0 .083.057.17.126.193.248.083-.038.297-.394.297-.2 0-.493.05-.652.11-.36.136-.916.698-1.108 1.121-.08.177-.189.405-.241.507-.052.103-.095.449-.095.77s-.048.614-.107.65c-.06.037-.108.167-.108.29 0 .275-.537.801-1.026 1.004-.868.361-1.982.033-1.982-.584 0-.118-.049-.245-.108-.281-.059-.037-.107-.374-.107-.75s.048-.713.107-.749c.06-.037.108-.158.108-.271 0-.369.437-1.002 1.18-1.71.402-.382.797-.744.877-.803.628-.463 2.178-1.422 2.329-1.44.019-.003.103.064.188.148zm73.353-.029c.304.16 1.702 1.069 1.864 1.212.069.06.284.23.478.377.968.734 1.814 1.856 1.814 2.405 0 .142.048.382.105.533.109.284-.02 1.164-.236 1.627-.317.677-1.773.622-2.582-.098-.162-.145-.295-.339-.295-.432 0-.092-.048-.198-.107-.235-.06-.036-.108-.262-.108-.502 0-.472-.152-1.112-.395-1.666-.312-.71-1.05-1.204-1.804-1.204-.308 0-.38-.04-.38-.214 0-.118.049-.214.108-.214s.107-.072.107-.16c0-.089.049-.161.108-.161s.107-.072.107-.16c0-.089.049-.161.108-.161s.107-.072.107-.16c0-.09.04-.161.09-.161.049 0 .157-.133.24-.295.136-.26.302-.448.402-.453.019-.001.14.054.269.122z" fill="#3F4952"/><path d="M20.862 81.015l-3.536 1.239.174.44c.927-.266.977-.254 1.21.372-1.873.789-3.533 2.078-2.604 4.421.938 2.37 3.18 2.249 5.038 1.687.277.699.224.791-.658 1.173l.175.44 3.614-1.265-.174-.44c-.906.243-.982.167-1.261-.502 1.794-.761 3.615-1.945 2.646-4.392-.96-2.421-3.088-2.28-5.049-1.712-.254-.604-.196-.683.599-1.02l-.174-.44zm-.092 7.213l.179.453c-1.142.253-2.297.097-3.056-1.82-.733-1.851-.146-2.75 1.012-3.303.162.371.218.514.285.682l1.58 3.988zm.039-4.776l-.19-.48c1.172-.291 2.364-.001 3.103 1.863.728 1.84.073 2.717-1.072 3.266l-.108-.272-1.733-4.377zm15.486.458c-.12.65-.263 1.135-.453 1.487-.248.407-.716.603-1.412.747-.518.108-.988.177-1.259.12-.304-.08-.438-.408-.588-1.045l-.549-2.346.914-.19c1.16-.24 1.335-.22 1.755.718l.49-.102-.64-2.74-.491.102c.031.99-.13 1.094-1.276 1.331l-.914.19-.673-2.876c-.105-.447-.056-.486.448-.59l.655-.136c.764-.158 1.154-.14 1.443.057.303.193.585.604.832 1.05l.475-.17c-.251-.829-.541-1.764-.612-2.005l-6.424 1.33.111.475c.988-.12 1.14-.08 1.416 1.1l1.22 5.208c.27 1.152.152 1.262-.985 1.597l.11.475 6.956-1.441c.014-.43.011-1.723-.05-2.35l-.499.004zm14.863.878l-.037-.486c-1.092-.04-1.17-.132-1.295-1.407l-.523-5.186c-.116-1.15-.069-1.265 1.035-1.45l-.038-.486-2.793.185-2.258 6.264-3.148-5.904-2.876.19.037.487c1.204.031 1.316.22 1.326 1.81l-.013 2.75c.014 1.465-.042 2.194-.09 2.644-.047.492-.292.76-1.065.88l.037.487 3.335-.222-.037-.486c-.923-.022-1.21-.129-1.314-.75-.089-.427-.139-1.08-.171-2.236l-.111-3.635.056-.004 3.377 6.894.389-.026 2.518-7.425.07-.005.437 5.345c.111 1.276.035 1.379-.998 1.56l.037.485 4.113-.273zm13.296.787l.046-.486c-1.074-.177-1.175-.298-1.052-1.587l.485-5.088c.12-1.248.243-1.377 1.333-1.366l.047-.485-3.178-.277-.018.195a.977.977 0 01-.198.458l-4.236 6.58-.028-.003c.223-1.463.294-2.198.346-2.752l.27-2.828c.125-1.318.244-1.391 1.251-1.388l.047-.485-4.135-.36-.046.486c1.074.177 1.188.3 1.06 1.644l-.473 4.963c-.126 1.318-.264 1.445-1.354 1.434l-.046.486 3.205.278.018-.194c.018-.18.046-.331.177-.53l4.213-6.623.041.003a41.373 41.373 0 00-.302 2.435l-.31 3.258c-.123 1.29-.245 1.39-1.349 1.378l-.046.486 4.232.368zm10.716 1.513l-.868-.198c-.38-.087-.4-.177-.243-.798l1.406-5.535c.336-1.323.435-1.371 1.542-1.204l.12-.473-7.576-1.731-.12.472.485.183c.733.281.743.47.599 1.036-.889 3.496-1.93 5.5-2.58 6.309-.147.18-.273.223-.45.183l-.773-.177-.833 2.995.543.124.672-1.175c.464-.865.702-1.068 1.313-.928l4.48 1.024c.707.161.839.377.752 1.229l-.143 1.466.543.125 1.131-2.927zm-2.903-1.577c-.192.756-.396.823-1.061.671l-2.037-.465c-.38-.087-.37-.185-.206-.49 1.01-1.826 1.924-4.745 2.357-6.446.133-.526.157-.564.7-.44l1.426.327c.53.12.52.161.337.876l-1.516 5.967zm14.551 6.111l.188-.45c-.779-.41-.879-.64-.85-1.937.075-2.528.2-5.067.305-7.629l-.735-.081-5.433 5.605c-.88.918-1.096 1.001-2 .782l-.201.445 2.922 1.093.188-.45c-.904-.472-.855-.661-.415-1.21.371-.456.734-.855 1.044-1.2l2.504.938a57.99 57.99 0 01-.085 1.647c-.027.644-.157.774-.975.601l-.187.45 3.73 1.396zm-2.446-4.868l-2.035-.762c.72-.785 1.432-1.589 2.19-2.39l.038.015-.193 3.137z" fill="#3F4952"/></svg>