<svg width="80" height="81" fill="none" xmlns="http://www.w3.org/2000/svg"><path d="M52.865 24.093l-5.146 4.912-7.485 7.486-4.913 5.146-6.55 6.55-5.146 4.912-1.17 1.17 1.17 1.169 43.977-43.743-1.17-1.17-4.678 4.68V2.338c0-.468-.234-.936-.468-1.17A1.785 1.785 0 0060.116.7H2.574c-.468 0-.936.234-1.17.468-.234.234-.468.702-.468 1.17v76.725c0 .468.234.935.468 1.17.234.233.702.467 1.17.467H49.59c.468 0 .936-.234 1.17-.468l5.38-5.146 5.146-5.146c.234-.234.468-.702.468-1.17V29.005l-3.509 3.509v32.515h-10.76a1.79 1.79 0 00-1.17.468c-.233.233-.467.701-.467 1.17v10.525H4.444V3.976H58.48v14.503l-5.614 5.614zm-3.742 44.444h9.122l-9.122 8.89v-8.89z" fill="#3F4952"/><path d="M53.333 12.865H11.93v4.912h41.403v-4.912zM7.251 29.005H47.72l5.146-4.912H7.251v4.912zm.234 12.632h27.836l5.147-5.146H7.485v5.146zm47.719 0V36.49h-.702l-5.146 5.146h5.848zm0 11.462v-5.146H42.807l-5.147 5.146h17.544zm-47.719 0h16.14l5.147-5.146H7.485v5.146zm9.591 11.696v-.468l2.573-4.679H7.485v5.147h9.59zm10.994-2.339l-4.912 2.339h20.117v-5.147H31.11l-1.638 1.638-1.17-1.17-.467-.468h-1.404l1.638 1.638c.234.234.234.468.234.468.234.234 0 .468-.234.702z" fill="#CF9454"/><path d="M58.246 68.538h-9.123v8.889l9.123-8.89z" fill="#fff"/><path d="M52.865 24.093l5.614-5.614V3.976H4.444v73.216h41.404V66.666c0-.468.234-.936.468-1.17.233-.234.701-.468 1.17-.468h10.76V32.514l3.508-3.51L73.45 17.31 51.93 38.83l2.573-2.573h.702v5.147h-5.849L29.707 61.052l1.638-1.638h12.163v5.146H23.392l-3.743 1.872-3.041 1.637c-.234.234-.468 0-.702-.234-.234-.234-.234-.468-.234-.701l1.17-2.34H7.485v-5.146H19.65l1.871-3.977c0-.233.234-.233.468-.233s.468 0 .468.233l4.21 4.211h1.404l.468.468 43.509-43.977-4.679-4.678L23.86 55.438l-1.17-1.17 1.17-1.17H7.485v-5.146h21.287l6.55-6.55H7.484v-5.146h32.983l7.485-7.485H7.251v-4.912h45.614v.233zM11.93 12.864h41.403v4.913H11.93v-4.913zm25.73 40.234l5.147-5.146h12.398v5.146H37.66zm30.41-40.467l3.04 3.04-43.508 43.743-3.04-3.04L68.07 12.63zM49.356 41.637l2.573-2.807-2.573 2.807z" fill="#fff"/><path d="M27.41 59.373l43.832-43.831-3.143-3.143L24.267 56.23l3.143 3.142z" fill="#E7C39C"/><path d="M29.473 61.286l43.743-43.743-1.17-1.17-43.742 43.743 1.17 1.17z" fill="#3F4952"/><path d="M22.456 55.438c-.234-.234-.468-.234-.468-.234-.234 0-.468.234-.468.234l-1.87 3.977-2.34 4.678 2.34 2.34 3.742-1.872 4.912-2.34c.234 0 .234-.233.234-.467s0-.468-.234-.468l-1.637-1.638-4.21-4.21z" fill="#CF9454"/><path d="M15.906 67.134c-.234.234 0 .468.234.701.234.234.468.234.702.234l2.807-1.403-2.34-2.34-.233.235-1.17 2.573zM70.643 6.315l-.702.702-1.403 1.403-1.404 1.404 7.018 7.017 1.403-1.403 1.404-1.404.701-.701c1.872-1.872 1.872-5.147 0-7.018-2.105-1.871-5.146-1.871-7.017 0z" fill="#3F4952"/></svg>