<svg width="80" height="81" fill="none" xmlns="http://www.w3.org/2000/svg"><path d="M75.616 53.523H57.863v16.658h17.753V53.523zM49.973 38.4H32.219v32h17.754v-32z" fill="#3F4952"/><path d="M16.876 70.4L6.794 57.467V54.18L19.726 70.4h-2.85zm3.507 0L6.794 53.304v-3.507L23.014 70.4h-2.63zm1.535-49.096h2.63v3.507l-2.63-3.507zm2.63 33.096L6.794 32.044v-3.507l17.754 22.575V54.4zm0 4.383L6.794 36.208V32.92l17.754 22.357v3.506zm0 11.617h-.877L6.794 48.92v-3.287l17.754 22.356v2.41zm0-20.164L6.794 27.66v-3.287l17.754 22.356v3.507zm0 16.876L6.794 44.756v-3.507l17.754 22.575v3.288zm0-38.137l-5.918-7.671h2.63l3.288 4.383v3.288zm0 33.973L6.794 40.373v-3.288L24.548 59.66v3.288zm0-25.425l-12.713-16.22h2.63l10.083 12.713v3.507zM6.794 66.016V62.51l6.137 7.89h-2.63l-3.507-4.383zm0 4.164v-3.287l2.85 3.507h-2.85v-.22zm17.754-28.493l-16-20.383h2.63L24.548 38.4v3.287zM13.589 70.4l-6.795-8.767v-3.288L16.22 70.4h-2.63zm10.959-40.548v3.287l-9.425-11.835h2.85l6.575 8.548zm0 16L6.794 23.496v-2.192H7.89l16.658 21.26v3.288z" fill="#CF9454"/><path d="M24.548 25.687l-3.288-4.383h.658l2.63 3.507v.876zm0 4.165l-6.575-8.548h.657l5.918 7.67v.878zm0 4.164L14.466 21.304h.657l9.425 11.835v.877zm0 4.384l-13.37-17.096h.657l12.713 16.219v.877zm0 4.164L7.89 21.304h.658l16 20.383v.877zm0 4.164L6.794 24.372v-.876l17.754 22.356v.877zm0 4.384L6.794 28.537v-.877l17.754 22.576v.876zm0 4.165L6.794 32.92v-.877L24.548 54.4v.877zm0 4.383L6.794 37.085v-.877l17.754 22.575v.877zm0 4.165L6.794 41.249v-.876l17.754 22.575v.877zm0 4.165L6.794 45.632v-.877l17.754 22.356v.877zm-1.535 2.41L6.794 49.797v-.877L23.671 70.4h-.658zm-3.287 0L6.794 54.18v-.876L20.384 70.4h-.658zm-3.507 0L6.794 58.345v-.877L16.876 70.4h-.657zm-9.425-7.89v-.877L13.59 70.4h-.658l-6.137-7.89zm0 4.383v-.877l3.507 4.384h-.658l-2.849-3.507z" fill="#fff"/><path d="M.876.701V78.51c0 .658.22 1.096.658 1.535.438.438.877.657 1.534.657h76.055v-4.383H5.26V.7H.876z" fill="#3F4952"/><path d="M60.493 18.454c1.096-.219 1.973.439 2.41 1.315l2.193 9.206c.219 1.096-.439 1.973-1.315 2.41l-8.548 2.193c-1.096.219-1.973-.439-2.411-1.316-.22-1.095.438-1.972 1.315-2.41l3.726-.877L31.78 9.906c-.877-.657-1.096-1.753-.439-2.63.658-.876 1.754-1.096 2.63-.438l26.302 19.068-1.315-5.04c0-1.097.657-1.973 1.534-2.412z" fill="#CF9454"/></svg>