<svg width="94" height="71" fill="none" xmlns="http://www.w3.org/2000/svg"><path d="M83.723 38.353c.265 0 .265.265.53.265l-.53-.265z" fill="#CF9454"/><path d="M55.087 48.96c1.06-.796 2.121-1.857 3.182-3.183l11.666 7.16-3.977 2.651-1.06-.796c-.266-.265-.53-.265-.796-.53l-9.015-5.303zm7.423-9.547c.531-1.325 1.061-2.651 1.592-4.242l15.644 9.81.53.266h-.265c-.796 1.06-1.856 2.12-2.917 3.181l-.53-.265-1.06-.795-12.993-7.955zm2.387-12.727L52.7 19.262l-5.303-3.182h-.265l-.265-.265c.265-.265.53-.796.265-1.326 0-.265 0-.265-.265-.53l-.265-.265c-.53-.53-1.591-.796-2.121-.53l-14.849 9.28-2.917 1.856c-.795.53-1.856.795-2.916.53-2.121-.53-3.182-2.386-2.917-4.507.265-1.061.796-1.857 1.856-2.387L41.564 6.004c1.856-1.06 3.447-1.856 5.568-2.651 4.508-1.591 9.546-1.856 14.053-.796.796.265 1.856.53 2.917.796 1.06.265 1.856.795 2.651 1.06 1.857.265 3.978 0 5.569-1.06L76.564.7l16.44 26.515-3.713 2.652-2.386 1.326c-1.326 1.06-2.121 2.651-2.386 3.977v.265c0 .53-.265 1.06-.265 1.591 0 .265-.266.53-.266 1.06l-19.09-11.4z" fill="#E7C39C"/><path d="M17.17.966l4.242 2.651c1.857 1.061 3.713 1.326 5.569 1.061.795-.53 1.856-.796 2.651-1.06l3.182-.796c4.508-1.06 9.546-.796 14.053.795-1.856.53-3.712 1.326-5.568 2.652L22.473 17.936c-.795.53-1.59 1.325-1.856 2.386-.53 2.121.796 3.977 2.917 4.508 1.06.265 2.12 0 2.916-.53l2.917-1.857 14.849-9.28c.795-.53 1.59-.265 2.12.53l-.264.265c-.53.53-.266 1.326.265 2.121l.265.266h.265l5.303 3.181 12.197 7.425 18.826 11.666.53.266c1.061.795 1.591 1.856 1.591 3.181.53 1.856-1.06 3.713-3.182 3.713-.53 0-1.325-.266-1.856-.53l-.53-.266-15.644-9.81c-.265 1.325-.795 2.651-1.59 4.242l12.727 7.955 1.06.795c.795.795 1.326 1.856 1.326 2.917 0 2.12-1.856 3.977-3.977 3.977-1.061 0-1.856-.53-2.652-1.06L69.67 53.2l-11.666-7.16-3.182 3.183 8.75 5.303c.265 0 .53.265.795.53.796.795 1.591 1.856 1.591 2.917 0 2.12-1.856 3.977-3.977 3.977-1.06 0-2.121-.53-2.917-1.326v.265l-.795-.53-7.425-4.508-2.12-1.325v-2.652c-.266-1.856-1.857-3.447-3.978-3.447-2.121 0-3.977 1.856-3.977 3.977v11.667l-4.243-2.651V46.042c0-1.06-.53-1.856-1.06-2.387-.796-.795-1.591-1.325-2.917-1.325-1.06 0-2.121.53-2.917 1.325-.795.796-1.06 1.591-1.06 2.652v10.341l-4.243-2.652V42.86c-.265-1.06-1.06-2.121-2.121-2.652-.53-.265-1.06-.265-1.591-.265-1.856 0-3.447 1.326-3.712 3.182v5.303c-2.917-2.386-5.038-5.568-6.364-8.75-.53-1.326-.795-2.651-1.06-3.977v-.265c-.266-1.591-1.061-2.917-2.387-3.978l-2.386-1.59L.996 27.48 17.17.966z" fill="#3F4952"/><path d="M29.102 46.042c0-1.325.53-2.121 1.06-2.916.796-.796 1.591-1.326 2.917-1.326 1.06 0 2.121.53 2.917 1.326.53.53 1.06 1.59 1.06 2.386V60.89c-.265 1.857-1.856 3.448-3.712 3.448s-3.712-1.591-3.712-3.447V46.042h-.53zm11.932 5.833c0-2.121 1.856-3.977 3.977-3.977 2.121 0 3.712 1.59 3.977 3.447v5.303l2.122-1.326 7.424 4.508-3.977 2.651-1.06-.795-4.243-2.652v9.015h-.265c-.53 1.591-1.857 2.652-3.713 2.652s-3.712-1.59-3.712-3.447V56.118l-.53-4.243zm-24.13-8.485v-.795c.266-1.856 1.857-2.916 3.712-3.181.53 0 1.061.265 1.591.265 1.061.53 1.857 1.59 2.122 2.651v12.462c-.265 1.856-1.856 3.447-3.713 3.447-1.855 0-3.712-1.59-3.712-3.447V43.391z" fill="#E7C39C"/><path d="M48.724 61.951V59.3l4.242 2.651c1.06.796 1.59 1.856 1.59 3.182 0 2.121-1.855 3.977-3.976 3.977-.796 0-1.591-.265-2.122-.795v-6.364h.266z" fill="#3F4952"/></svg>