<svg width="78" height="81" fill="none" xmlns="http://www.w3.org/2000/svg"><path d="M34.749 31.233L.997 62.923c-.258.258-.258.516-.258.773 0 .258 0 .516.258.773l5.41 5.411c.258 0 .516.258.773.258.258 0 .516 0 .773-.258l31.691-33.752c.258-.515.258-1.03 0-1.288l-3.607-3.607c-.258-.516-.773-.516-1.288 0zm32.463 37.874c-.258-.257-.515-.257-.773-.257H32.945c-.258 0-.516 0-.773.257-.258.258-.258.516-.258.773v3.607H28.05v3.607h-5.668v3.608h54.88v-3.608h-5.927v-3.607H67.47V69.88c0-.257 0-.515-.258-.773zm-37.359-48.18L49.177 40.25l13.398-13.397c.257-.258.257-.258.515-.258L43.509 7.014c0 .257-.258.257-.258.515L29.853 20.927z" fill="#3F4952"/><path d="M62.833 26.595c-.258 0-.258.257-.516.257L48.92 40.25l-.258.258c-1.546 1.546-1.546 4.122 0 5.668 1.546 1.546 4.122 1.546 5.668 0l13.398-13.398c1.546-1.546 1.546-4.122 0-5.668-1.03-1.546-3.092-1.546-4.895-.515zM37.326 1.86L23.928 15.259c-1.546 1.546-1.546 4.123 0 5.669 1.546 1.546 4.122 1.546 5.668 0h.258L43.252 7.529s0-.258.257-.258c1.289-1.546 1.031-3.865-.257-5.41-1.804-1.546-4.38-1.546-5.926 0z" fill="#CF9454"/></svg>