<svg width="70" height="81" fill="none" xmlns="http://www.w3.org/2000/svg"><path d="M38.13 9.744V2.556H14.942v7.188h4.637v-1.16h1.392v1.16H32.1v-1.16h1.623v1.16h4.406z" fill="#3F4952"/><path d="M33.724 12.99v-1.159h5.566c.231 0 .463 0 .695-.231.232-.232.232-.464.232-.696V1.629c0-.232 0-.464-.232-.696-.232-.232-.464-.232-.696-.232H14.014c-.232 0-.463 0-.695.232-.232 0-.464.232-.464.696v9.275c0 .232 0 .464.232.696.232.232.463.232.695.232h5.566v1.159h1.623v-1.16H32.1v1.16h1.623zM20.971 9.746v-1.16h-1.623v1.16h-4.406v-7.19H38.13v7.189h-4.406v-1.16h-1.623v1.16h-11.13z" fill="#E7C39C"/><path d="M67.115 78.15V19.947H24.217V78.15h42.898zM29.783 27.367h34.782v3.942H29.783v-3.942zm-3.015 9.276h37.797v3.942H26.768v-3.942zm0 9.043h37.797v3.942H26.768v-3.942zm0 9.276h37.797v3.941H26.768v-3.941zm0 9.275h32.463v3.942H26.768v-3.942z" fill="#fff"/><path d="M22.13 80.238c.232.231.464.463.928.463h45.449c.232 0 .695-.232.927-.463.232-.232.464-.464.464-.928V18.789c0-.232-.232-.696-.464-.928-.232-.232-.463-.464-.927-.464H53.202V5.803c0-.927-.463-2.087-1.159-2.782a3.84 3.84 0 00-2.782-1.16h-9.044v8.812c0 .232 0 .464-.232.695-.232.232-.464.232-.695.232h-5.566v1.16h-1.623v-.928h-11.13v1.16h-1.623v-1.16h-5.334c-.231 0-.463 0-.695-.232-.232-.232-.464-.463-.464-.695V2.093H3.812c-.928 0-2.087.464-2.783 1.16-.464.695-.928 1.623-.928 2.55v63.768c0 .928.464 2.087 1.16 2.783a3.84 3.84 0 002.782 1.159h17.623v5.797c0 .464.232.696.464.928zm2.087-60.29h42.898v58.203H24.217V19.948z" fill="#3F4952"/><path d="M64.565 27.368H29.783v3.942h34.782v-3.942zm0 9.275H26.768v3.942h37.797v-3.942zm0 9.044H26.768v3.942h37.797v-3.942zm0 9.275H26.768v3.942h37.797v-3.942zm-5.334 9.275H26.768v3.942H59.23v-3.942z" fill="#CF9454"/></svg>