<svg width="74" height="71" fill="none" xmlns="http://www.w3.org/2000/svg"><path d="M19.547 53.824c-4.48-4.48-7.094-9.893-7.654-16.053l-6.346.746c-.56 0-1.12 0-1.867.187h-.373c.746 8.026 4.293 15.68 10.08 21.28 6.72 6.72 15.493 10.266 24.826 10.266 8.773 0 17.173-3.173 23.707-9.146l-6.16-6.16c-4.853 4.293-11.014 6.72-17.547 6.72-6.906-.187-13.626-2.987-18.666-7.84zM38.026.25C28.693.25 19.733 3.984 13.2 10.517c-.747.747-1.494 1.494-2.24 2.427l6.16 6.16c.746-.934 1.306-1.68 2.24-2.427 5.04-5.04 11.573-7.653 18.666-7.653 7.094 0 13.814 2.8 18.667 7.653 4.853 4.853 7.467 11.2 7.653 17.92 2.8-.56 5.787-.933 8.774-1.493-.56-8.4-4.107-16.614-10.267-22.587C56.32 3.797 47.36.25 38.026.25z" fill="#3F4952"/><path d="M4.613 6.41L.88 31.05l24.64-3.733-8.4-8.213-6.16-6.16-6.347-6.533zM55.76 54.943l6.346 6.16 6.16 6.347L72 42.81l-24.64 3.733 8.4 8.4z" fill="#E7C39C"/></svg>